<?plantuml 1.2026.1?><svg xmlns="http://www.w3.org/2000/svg" xmlns:xlink="http://www.w3.org/1999/xlink" contentStyleType="text/css" data-diagram-type="CLASS" height="484px" preserveAspectRatio="none" style="width:1102px;height:484px;" version="1.1" viewBox="0 0 1102 484" width="1102px" zoomAndPan="magnify"><defs/><g><!--class Node--><g class="entity" data-qualified-name="Node" data-source-line="13" id="ent0002"><rect fill="#7F8C8D" height="46" rx="5" ry="5" style="stroke:#888888;stroke-width:0.5;" width="70.8516" x="725.38" y="7"/><ellipse cx="739.38" cy="22" fill="#A9DCDF" rx="10" ry="10" style="stroke:#181818;stroke-width:1;"/><path d="M739.0988,18.1406 L738.1456,22.3125 L740.0519,22.3125 L739.0988,18.1406 Z M737.8644,16.2969 L740.3331,16.2969 L743.0831,26.5 L741.0675,26.5 L740.4425,23.9844 L737.7394,23.9844 L737.13,26.5 L735.0988,26.5 L737.8644,16.2969 Z " fill="#000000"/><text fill="#FFFFFF" font-family="sans-serif" font-size="14" font-style="italic" font-weight="bold" lengthAdjust="spacing" textLength="40.8516" x="752.38" y="26.8467">Node</text><line style="stroke:#888888;stroke-width:0.5;" x1="726.38" x2="795.2316" y1="37" y2="37"/><line style="stroke:#888888;stroke-width:0.5;" x1="726.38" x2="795.2316" y1="45" y2="45"/></g><!--class Parent--><g class="entity" data-qualified-name="Parent" data-source-line="15" id="ent0003"><rect fill="#34495E" height="46" rx="5" ry="5" style="stroke:#888888;stroke-width:0.5;" width="82.7666" x="584.42" y="113"/><ellipse cx="598.42" cy="128" fill="#A9DCDF" rx="10" ry="10" style="stroke:#181818;stroke-width:1;"/><path d="M598.1388,124.1406 L597.1856,128.3125 L599.0919,128.3125 L598.1388,124.1406 Z M596.9044,122.2969 L599.3731,122.2969 L602.1231,132.5 L600.1075,132.5 L599.4825,129.9844 L596.7794,129.9844 L596.17,132.5 L594.1388,132.5 L596.9044,122.2969 Z " fill="#000000"/><text fill="#FFFFFF" font-family="sans-serif" font-size="14" font-style="italic" font-weight="bold" lengthAdjust="spacing" textLength="52.7666" x="611.42" y="132.8467">Parent</text><line style="stroke:#888888;stroke-width:0.5;" x1="585.42" x2="666.1866" y1="143" y2="143"/><line style="stroke:#888888;stroke-width:0.5;" x1="585.42" x2="666.1866" y1="151" y2="151"/></g><!--class ImageView--><g class="entity" data-qualified-name="ImageView" data-source-line="16" id="ent0004"><rect fill="#1A5276" height="46" rx="5" ry="5" style="stroke:#888888;stroke-width:0.5;" width="116.8232" x="702.39" y="113"/><ellipse cx="716.39" cy="128" fill="#ADD1B2" rx="10" ry="10" style="stroke:#181818;stroke-width:1;"/><path d="M718.7806,132.7031 Q718.2963,132.9531 717.765,133.0781 Q717.2494,133.2031 716.6713,133.2031 Q714.6088,133.2031 713.515,131.8438 Q712.4369,130.4844 712.4369,127.9063 Q712.4369,125.3281 713.515,123.9688 Q714.6088,122.6094 716.6713,122.6094 Q717.2494,122.6094 717.7806,122.7344 Q718.3119,122.8594 718.7806,123.0938 L718.7806,125.3438 Q718.265,124.8594 717.765,124.6406 Q717.2806,124.4219 716.765,124.4219 Q715.6556,124.4219 715.0931,125.2969 Q714.5306,126.1719 714.5306,127.9063 Q714.5306,129.625 715.0931,130.5156 Q715.6556,131.3906 716.765,131.3906 Q717.2806,131.3906 717.765,131.1719 Q718.265,130.9375 718.7806,130.4688 L718.7806,132.7031 Z " fill="#000000"/><text fill="#FFFFFF" font-family="sans-serif" font-size="14" font-weight="bold" lengthAdjust="spacing" textLength="86.8232" x="729.39" y="132.8467">ImageView</text><line style="stroke:#888888;stroke-width:0.5;" x1="703.39" x2="818.2132" y1="143" y2="143"/><line style="stroke:#888888;stroke-width:0.5;" x1="703.39" x2="818.2132" y1="151" y2="151"/></g><!--class Shape--><g class="entity" data-qualified-name="Shape" data-source-line="18" id="ent0005"><rect fill="#C0392B" height="46" rx="5" ry="5" style="stroke:#888888;stroke-width:0.5;" width="79.0137" x="854.3" y="113"/><ellipse cx="868.3" cy="128" fill="#A9DCDF" rx="10" ry="10" style="stroke:#181818;stroke-width:1;"/><path d="M868.0188,124.1406 L867.0656,128.3125 L868.9719,128.3125 L868.0188,124.1406 Z M866.7844,122.2969 L869.2531,122.2969 L872.0031,132.5 L869.9875,132.5 L869.3625,129.9844 L866.6594,129.9844 L866.05,132.5 L864.0188,132.5 L866.7844,122.2969 Z " fill="#000000"/><text fill="#FFFFFF" font-family="sans-serif" font-size="14" font-style="italic" font-weight="bold" lengthAdjust="spacing" textLength="49.0137" x="881.3" y="132.8467">Shape</text><line style="stroke:#888888;stroke-width:0.5;" x1="855.3" x2="932.3137" y1="143" y2="143"/><line style="stroke:#888888;stroke-width:0.5;" x1="855.3" x2="932.3137" y1="151" y2="151"/></g><!--class Region--><g class="entity" data-qualified-name="Region" data-source-line="19" id="ent0006"><rect fill="#B7950B" height="46" rx="5" ry="5" style="stroke:#888888;stroke-width:0.5;" width="84.6807" x="482.46" y="219"/><ellipse cx="496.46" cy="234" fill="#A9DCDF" rx="10" ry="10" style="stroke:#181818;stroke-width:1;"/><path d="M496.1788,230.1406 L495.2256,234.3125 L497.1319,234.3125 L496.1788,230.1406 Z M494.9444,228.2969 L497.4131,228.2969 L500.1631,238.5 L498.1475,238.5 L497.5225,235.9844 L494.8194,235.9844 L494.21,238.5 L492.1788,238.5 L494.9444,228.2969 Z " fill="#000000"/><text fill="#FFFFFF" font-family="sans-serif" font-size="14" font-style="italic" font-weight="bold" lengthAdjust="spacing" textLength="54.6807" x="509.46" y="238.8467">Region</text><line style="stroke:#888888;stroke-width:0.5;" x1="483.46" x2="566.1407" y1="249" y2="249"/><line style="stroke:#888888;stroke-width:0.5;" x1="483.46" x2="566.1407" y1="257" y2="257"/></g><!--class Group--><g class="entity" data-qualified-name="Group" data-source-line="20" id="ent0007"><rect fill="#6C3483" height="46" rx="5" ry="5" style="stroke:#888888;stroke-width:0.5;" width="78.002" x="601.8" y="219"/><ellipse cx="615.8" cy="234" fill="#ADD1B2" rx="10" ry="10" style="stroke:#181818;stroke-width:1;"/><path d="M618.1906,238.7031 Q617.7063,238.9531 617.175,239.0781 Q616.6594,239.2031 616.0813,239.2031 Q614.0188,239.2031 612.925,237.8438 Q611.8469,236.4844 611.8469,233.9063 Q611.8469,231.3281 612.925,229.9688 Q614.0188,228.6094 616.0813,228.6094 Q616.6594,228.6094 617.1906,228.7344 Q617.7219,228.8594 618.1906,229.0938 L618.1906,231.3438 Q617.675,230.8594 617.175,230.6406 Q616.6906,230.4219 616.175,230.4219 Q615.0656,230.4219 614.5031,231.2969 Q613.9406,232.1719 613.9406,233.9063 Q613.9406,235.625 614.5031,236.5156 Q615.0656,237.3906 616.175,237.3906 Q616.6906,237.3906 617.175,237.1719 Q617.675,236.9375 618.1906,236.4688 L618.1906,238.7031 Z " fill="#000000"/><text fill="#FFFFFF" font-family="sans-serif" font-size="14" font-weight="bold" lengthAdjust="spacing" textLength="48.002" x="628.8" y="238.8467">Group</text><line style="stroke:#888888;stroke-width:0.5;" x1="602.8" x2="678.802" y1="249" y2="249"/><line style="stroke:#888888;stroke-width:0.5;" x1="602.8" x2="678.802" y1="257" y2="257"/></g><!--class Control--><g class="entity" data-qualified-name="Control" data-source-line="22" id="ent0008"><rect fill="#E74C3C" height="46" rx="5" ry="5" style="stroke:#888888;stroke-width:0.5;" width="87.873" x="303.87" y="325"/><ellipse cx="317.87" cy="340" fill="#A9DCDF" rx="10" ry="10" style="stroke:#181818;stroke-width:1;"/><path d="M317.5888,336.1406 L316.6356,340.3125 L318.5419,340.3125 L317.5888,336.1406 Z M316.3544,334.2969 L318.8231,334.2969 L321.5731,344.5 L319.5575,344.5 L318.9325,341.9844 L316.2294,341.9844 L315.62,344.5 L313.5888,344.5 L316.3544,334.2969 Z " fill="#000000"/><text fill="#FFFFFF" font-family="sans-serif" font-size="14" font-style="italic" font-weight="bold" lengthAdjust="spacing" textLength="57.873" x="330.87" y="344.8467">Control</text><line style="stroke:#888888;stroke-width:0.5;" x1="304.87" x2="390.743" y1="355" y2="355"/><line style="stroke:#888888;stroke-width:0.5;" x1="304.87" x2="390.743" y1="363" y2="363"/></g><!--class Pane--><g class="entity" data-qualified-name="Pane" data-source-line="23" id="ent0009"><rect fill="#E8A838" height="46" rx="5" ry="5" style="stroke:#888888;stroke-width:0.5;" width="69.1699" x="730.22" y="325"/><ellipse cx="744.22" cy="340" fill="#A9DCDF" rx="10" ry="10" style="stroke:#181818;stroke-width:1;"/><path d="M743.9388,336.1406 L742.9856,340.3125 L744.8919,340.3125 L743.9388,336.1406 Z M742.7044,334.2969 L745.1731,334.2969 L747.9231,344.5 L745.9075,344.5 L745.2825,341.9844 L742.5794,341.9844 L741.97,344.5 L739.9388,344.5 L742.7044,334.2969 Z " fill="#000000"/><text fill="#FFFFFF" font-family="sans-serif" font-size="14" font-style="italic" font-weight="bold" lengthAdjust="spacing" textLength="39.1699" x="757.22" y="344.8467">Pane</text><line style="stroke:#888888;stroke-width:0.5;" x1="731.22" x2="798.3899" y1="355" y2="355"/><line style="stroke:#888888;stroke-width:0.5;" x1="731.22" x2="798.3899" y1="363" y2="363"/></g><!--class Circle--><g class="entity" data-qualified-name="Circle" data-source-line="25" id="ent0010"><rect fill="#C0392B" height="46" rx="5" ry="5" style="stroke:#888888;stroke-width:0.5;" width="74.5703" x="729.52" y="219"/><ellipse cx="743.52" cy="234" fill="#ADD1B2" rx="10" ry="10" style="stroke:#181818;stroke-width:1;"/><path d="M745.9106,238.7031 Q745.4263,238.9531 744.895,239.0781 Q744.3794,239.2031 743.8013,239.2031 Q741.7388,239.2031 740.645,237.8438 Q739.5669,236.4844 739.5669,233.9063 Q739.5669,231.3281 740.645,229.9688 Q741.7388,228.6094 743.8013,228.6094 Q744.3794,228.6094 744.9106,228.7344 Q745.4419,228.8594 745.9106,229.0938 L745.9106,231.3438 Q745.395,230.8594 744.895,230.6406 Q744.4106,230.4219 743.895,230.4219 Q742.7856,230.4219 742.2231,231.2969 Q741.6606,232.1719 741.6606,233.9063 Q741.6606,235.625 742.2231,236.5156 Q742.7856,237.3906 743.895,237.3906 Q744.4106,237.3906 744.895,237.1719 Q745.395,236.9375 745.9106,236.4688 L745.9106,238.7031 Z " fill="#000000"/><text fill="#FFFFFF" font-family="sans-serif" font-size="14" font-weight="bold" lengthAdjust="spacing" textLength="44.5703" x="756.52" y="238.8467">Circle</text><line style="stroke:#888888;stroke-width:0.5;" x1="730.52" x2="803.0903" y1="249" y2="249"/><line style="stroke:#888888;stroke-width:0.5;" x1="730.52" x2="803.0903" y1="257" y2="257"/></g><!--class Rectangle--><g class="entity" data-qualified-name="Rectangle" data-source-line="26" id="ent0011"><rect fill="#C0392B" height="46" rx="5" ry="5" style="stroke:#888888;stroke-width:0.5;" width="108.9961" x="839.31" y="219"/><ellipse cx="853.31" cy="234" fill="#ADD1B2" rx="10" ry="10" style="stroke:#181818;stroke-width:1;"/><path d="M855.7006,238.7031 Q855.2163,238.9531 854.685,239.0781 Q854.1694,239.2031 853.5913,239.2031 Q851.5288,239.2031 850.435,237.8438 Q849.3569,236.4844 849.3569,233.9063 Q849.3569,231.3281 850.435,229.9688 Q851.5288,228.6094 853.5913,228.6094 Q854.1694,228.6094 854.7006,228.7344 Q855.2319,228.8594 855.7006,229.0938 L855.7006,231.3438 Q855.185,230.8594 854.685,230.6406 Q854.2006,230.4219 853.685,230.4219 Q852.5756,230.4219 852.0131,231.2969 Q851.4506,232.1719 851.4506,233.9063 Q851.4506,235.625 852.0131,236.5156 Q852.5756,237.3906 853.685,237.3906 Q854.2006,237.3906 854.685,237.1719 Q855.185,236.9375 855.7006,236.4688 L855.7006,238.7031 Z " fill="#000000"/><text fill="#FFFFFF" font-family="sans-serif" font-size="14" font-weight="bold" lengthAdjust="spacing" textLength="78.9961" x="866.31" y="238.8467">Rectangle</text><line style="stroke:#888888;stroke-width:0.5;" x1="840.31" x2="947.3061" y1="249" y2="249"/><line style="stroke:#888888;stroke-width:0.5;" x1="840.31" x2="947.3061" y1="257" y2="257"/></g><!--class Line--><g class="entity" data-qualified-name="Line" data-source-line="27" id="ent0012"><rect fill="#C0392B" height="46" rx="5" ry="5" style="stroke:#888888;stroke-width:0.5;" width="63.1816" x="983.21" y="219"/><ellipse cx="997.21" cy="234" fill="#ADD1B2" rx="10" ry="10" style="stroke:#181818;stroke-width:1;"/><path d="M999.6006,238.7031 Q999.1163,238.9531 998.585,239.0781 Q998.0694,239.2031 997.4913,239.2031 Q995.4288,239.2031 994.335,237.8438 Q993.2569,236.4844 993.2569,233.9063 Q993.2569,231.3281 994.335,229.9688 Q995.4288,228.6094 997.4913,228.6094 Q998.0694,228.6094 998.6006,228.7344 Q999.1319,228.8594 999.6006,229.0938 L999.6006,231.3438 Q999.085,230.8594 998.585,230.6406 Q998.1006,230.4219 997.585,230.4219 Q996.4756,230.4219 995.9131,231.2969 Q995.3506,232.1719 995.3506,233.9063 Q995.3506,235.625 995.9131,236.5156 Q996.4756,237.3906 997.585,237.3906 Q998.1006,237.3906 998.585,237.1719 Q999.085,236.9375 999.6006,236.4688 L999.6006,238.7031 Z " fill="#000000"/><text fill="#FFFFFF" font-family="sans-serif" font-size="14" font-weight="bold" lengthAdjust="spacing" textLength="33.1816" x="1010.21" y="238.8467">Line</text><line style="stroke:#888888;stroke-width:0.5;" x1="984.21" x2="1045.3916" y1="249" y2="249"/><line style="stroke:#888888;stroke-width:0.5;" x1="984.21" x2="1045.3916" y1="257" y2="257"/></g><!--class Button--><g class="entity" data-qualified-name="Button" data-source-line="29" id="ent0013"><rect fill="#E74C3C" height="46" rx="5" ry="5" style="stroke:#888888;stroke-width:0.5;" width="83.6074" x="7" y="431"/><ellipse cx="21" cy="446" fill="#ADD1B2" rx="10" ry="10" style="stroke:#181818;stroke-width:1;"/><path d="M23.3906,450.7031 Q22.9063,450.9531 22.375,451.0781 Q21.8594,451.2031 21.2813,451.2031 Q19.2188,451.2031 18.125,449.8438 Q17.0469,448.4844 17.0469,445.9063 Q17.0469,443.3281 18.125,441.9688 Q19.2188,440.6094 21.2813,440.6094 Q21.8594,440.6094 22.3906,440.7344 Q22.9219,440.8594 23.3906,441.0938 L23.3906,443.3438 Q22.875,442.8594 22.375,442.6406 Q21.8906,442.4219 21.375,442.4219 Q20.2656,442.4219 19.7031,443.2969 Q19.1406,444.1719 19.1406,445.9063 Q19.1406,447.625 19.7031,448.5156 Q20.2656,449.3906 21.375,449.3906 Q21.8906,449.3906 22.375,449.1719 Q22.875,448.9375 23.3906,448.4688 L23.3906,450.7031 Z " fill="#000000"/><text fill="#FFFFFF" font-family="sans-serif" font-size="14" font-weight="bold" lengthAdjust="spacing" textLength="53.6074" x="34" y="450.8467">Button</text><line style="stroke:#888888;stroke-width:0.5;" x1="8" x2="89.6074" y1="461" y2="461"/><line style="stroke:#888888;stroke-width:0.5;" x1="8" x2="89.6074" y1="469" y2="469"/></g><!--class Label--><g class="entity" data-qualified-name="Label" data-source-line="30" id="ent0014"><rect fill="#8E44AD" height="46" rx="5" ry="5" style="stroke:#888888;stroke-width:0.5;" width="72.6836" x="125.46" y="431"/><ellipse cx="139.46" cy="446" fill="#ADD1B2" rx="10" ry="10" style="stroke:#181818;stroke-width:1;"/><path d="M141.8506,450.7031 Q141.3662,450.9531 140.835,451.0781 Q140.3194,451.2031 139.7412,451.2031 Q137.6787,451.2031 136.585,449.8438 Q135.5069,448.4844 135.5069,445.9063 Q135.5069,443.3281 136.585,441.9688 Q137.6787,440.6094 139.7412,440.6094 Q140.3194,440.6094 140.8506,440.7344 Q141.3819,440.8594 141.8506,441.0938 L141.8506,443.3438 Q141.335,442.8594 140.835,442.6406 Q140.3506,442.4219 139.835,442.4219 Q138.7256,442.4219 138.1631,443.2969 Q137.6006,444.1719 137.6006,445.9063 Q137.6006,447.625 138.1631,448.5156 Q138.7256,449.3906 139.835,449.3906 Q140.3506,449.3906 140.835,449.1719 Q141.335,448.9375 141.8506,448.4688 L141.8506,450.7031 Z " fill="#000000"/><text fill="#FFFFFF" font-family="sans-serif" font-size="14" font-weight="bold" lengthAdjust="spacing" textLength="42.6836" x="152.46" y="450.8467">Label</text><line style="stroke:#888888;stroke-width:0.5;" x1="126.46" x2="197.1436" y1="461" y2="461"/><line style="stroke:#888888;stroke-width:0.5;" x1="126.46" x2="197.1436" y1="469" y2="469"/></g><!--class TextField--><g class="entity" data-qualified-name="TextField" data-source-line="31" id="ent0015"><rect fill="#27AE60" height="46" rx="5" ry="5" style="stroke:#888888;stroke-width:0.5;" width="103.4453" x="233.08" y="431"/><ellipse cx="247.08" cy="446" fill="#ADD1B2" rx="10" ry="10" style="stroke:#181818;stroke-width:1;"/><path d="M249.4706,450.7031 Q248.9863,450.9531 248.455,451.0781 Q247.9394,451.2031 247.3613,451.2031 Q245.2988,451.2031 244.205,449.8438 Q243.1269,448.4844 243.1269,445.9063 Q243.1269,443.3281 244.205,441.9688 Q245.2988,440.6094 247.3613,440.6094 Q247.9394,440.6094 248.4706,440.7344 Q249.0019,440.8594 249.4706,441.0938 L249.4706,443.3438 Q248.955,442.8594 248.455,442.6406 Q247.9706,442.4219 247.455,442.4219 Q246.3456,442.4219 245.7831,443.2969 Q245.2206,444.1719 245.2206,445.9063 Q245.2206,447.625 245.7831,448.5156 Q246.3456,449.3906 247.455,449.3906 Q247.9706,449.3906 248.455,449.1719 Q248.955,448.9375 249.4706,448.4688 L249.4706,450.7031 Z " fill="#000000"/><text fill="#FFFFFF" font-family="sans-serif" font-size="14" font-weight="bold" lengthAdjust="spacing" textLength="73.4453" x="260.08" y="450.8467">TextField</text><line style="stroke:#888888;stroke-width:0.5;" x1="234.08" x2="335.5253" y1="461" y2="461"/><line style="stroke:#888888;stroke-width:0.5;" x1="234.08" x2="335.5253" y1="469" y2="469"/></g><!--class Slider--><g class="entity" data-qualified-name="Slider" data-source-line="32" id="ent0016"><rect fill="#C0392B" height="46" rx="5" ry="5" style="stroke:#888888;stroke-width:0.5;" width="76.1016" x="371.75" y="431"/><ellipse cx="385.75" cy="446" fill="#ADD1B2" rx="10" ry="10" style="stroke:#181818;stroke-width:1;"/><path d="M388.1406,450.7031 Q387.6563,450.9531 387.125,451.0781 Q386.6094,451.2031 386.0313,451.2031 Q383.9688,451.2031 382.875,449.8438 Q381.7969,448.4844 381.7969,445.9063 Q381.7969,443.3281 382.875,441.9688 Q383.9688,440.6094 386.0313,440.6094 Q386.6094,440.6094 387.1406,440.7344 Q387.6719,440.8594 388.1406,441.0938 L388.1406,443.3438 Q387.625,442.8594 387.125,442.6406 Q386.6406,442.4219 386.125,442.4219 Q385.0156,442.4219 384.4531,443.2969 Q383.8906,444.1719 383.8906,445.9063 Q383.8906,447.625 384.4531,448.5156 Q385.0156,449.3906 386.125,449.3906 Q386.6406,449.3906 387.125,449.1719 Q387.625,448.9375 388.1406,448.4688 L388.1406,450.7031 Z " fill="#000000"/><text fill="#FFFFFF" font-family="sans-serif" font-size="14" font-weight="bold" lengthAdjust="spacing" textLength="46.1016" x="398.75" y="450.8467">Slider</text><line style="stroke:#888888;stroke-width:0.5;" x1="372.75" x2="446.8516" y1="461" y2="461"/><line style="stroke:#888888;stroke-width:0.5;" x1="372.75" x2="446.8516" y1="469" y2="469"/></g><!--class CheckBox--><g class="entity" data-qualified-name="CheckBox" data-source-line="33" id="ent0017"><rect fill="#00838F" height="46" rx="5" ry="5" style="stroke:#888888;stroke-width:0.5;" width="106.665" x="482.47" y="431"/><ellipse cx="496.47" cy="446" fill="#ADD1B2" rx="10" ry="10" style="stroke:#181818;stroke-width:1;"/><path d="M498.8606,450.7031 Q498.3763,450.9531 497.845,451.0781 Q497.3294,451.2031 496.7513,451.2031 Q494.6888,451.2031 493.595,449.8438 Q492.5169,448.4844 492.5169,445.9063 Q492.5169,443.3281 493.595,441.9688 Q494.6888,440.6094 496.7513,440.6094 Q497.3294,440.6094 497.8606,440.7344 Q498.3919,440.8594 498.8606,441.0938 L498.8606,443.3438 Q498.345,442.8594 497.845,442.6406 Q497.3606,442.4219 496.845,442.4219 Q495.7356,442.4219 495.1731,443.2969 Q494.6106,444.1719 494.6106,445.9063 Q494.6106,447.625 495.1731,448.5156 Q495.7356,449.3906 496.845,449.3906 Q497.3606,449.3906 497.845,449.1719 Q498.345,448.9375 498.8606,448.4688 L498.8606,450.7031 Z " fill="#000000"/><text fill="#FFFFFF" font-family="sans-serif" font-size="14" font-weight="bold" lengthAdjust="spacing" textLength="76.665" x="509.47" y="450.8467">CheckBox</text><line style="stroke:#888888;stroke-width:0.5;" x1="483.47" x2="588.135" y1="461" y2="461"/><line style="stroke:#888888;stroke-width:0.5;" x1="483.47" x2="588.135" y1="469" y2="469"/></g><!--class VBox--><g class="entity" data-qualified-name="VBox" data-source-line="35" id="ent0018"><rect fill="#E8A838" height="46" rx="5" ry="5" style="stroke:#888888;stroke-width:0.5;" width="70.1543" x="623.73" y="431"/><ellipse cx="637.73" cy="446" fill="#ADD1B2" rx="10" ry="10" style="stroke:#181818;stroke-width:1;"/><path d="M640.1206,450.7031 Q639.6363,450.9531 639.105,451.0781 Q638.5894,451.2031 638.0113,451.2031 Q635.9488,451.2031 634.855,449.8438 Q633.7769,448.4844 633.7769,445.9063 Q633.7769,443.3281 634.855,441.9688 Q635.9488,440.6094 638.0113,440.6094 Q638.5894,440.6094 639.1206,440.7344 Q639.6519,440.8594 640.1206,441.0938 L640.1206,443.3438 Q639.605,442.8594 639.105,442.6406 Q638.6206,442.4219 638.105,442.4219 Q636.9956,442.4219 636.4331,443.2969 Q635.8706,444.1719 635.8706,445.9063 Q635.8706,447.625 636.4331,448.5156 Q636.9956,449.3906 638.105,449.3906 Q638.6206,449.3906 639.105,449.1719 Q639.605,448.9375 640.1206,448.4688 L640.1206,450.7031 Z " fill="#000000"/><text fill="#FFFFFF" font-family="sans-serif" font-size="14" font-weight="bold" lengthAdjust="spacing" textLength="40.1543" x="650.73" y="450.8467">VBox</text><line style="stroke:#888888;stroke-width:0.5;" x1="624.73" x2="692.8843" y1="461" y2="461"/><line style="stroke:#888888;stroke-width:0.5;" x1="624.73" x2="692.8843" y1="469" y2="469"/></g><!--class HBox--><g class="entity" data-qualified-name="HBox" data-source-line="36" id="ent0019"><rect fill="#E8A838" height="46" rx="5" ry="5" style="stroke:#888888;stroke-width:0.5;" width="71.0361" x="729.29" y="431"/><ellipse cx="743.29" cy="446" fill="#ADD1B2" rx="10" ry="10" style="stroke:#181818;stroke-width:1;"/><path d="M745.6806,450.7031 Q745.1963,450.9531 744.665,451.0781 Q744.1494,451.2031 743.5713,451.2031 Q741.5088,451.2031 740.415,449.8438 Q739.3369,448.4844 739.3369,445.9063 Q739.3369,443.3281 740.415,441.9688 Q741.5088,440.6094 743.5713,440.6094 Q744.1494,440.6094 744.6806,440.7344 Q745.2119,440.8594 745.6806,441.0938 L745.6806,443.3438 Q745.165,442.8594 744.665,442.6406 Q744.1806,442.4219 743.665,442.4219 Q742.5556,442.4219 741.9931,443.2969 Q741.4306,444.1719 741.4306,445.9063 Q741.4306,447.625 741.9931,448.5156 Q742.5556,449.3906 743.665,449.3906 Q744.1806,449.3906 744.665,449.1719 Q745.165,448.9375 745.6806,448.4688 L745.6806,450.7031 Z " fill="#000000"/><text fill="#FFFFFF" font-family="sans-serif" font-size="14" font-weight="bold" lengthAdjust="spacing" textLength="41.0361" x="756.29" y="450.8467">HBox</text><line style="stroke:#888888;stroke-width:0.5;" x1="730.29" x2="799.3261" y1="461" y2="461"/><line style="stroke:#888888;stroke-width:0.5;" x1="730.29" x2="799.3261" y1="469" y2="469"/></g><!--class BorderPane--><g class="entity" data-qualified-name="BorderPane" data-source-line="37" id="ent0020"><rect fill="#E8A838" height="46" rx="5" ry="5" style="stroke:#888888;stroke-width:0.5;" width="122.7842" x="835.41" y="431"/><ellipse cx="849.41" cy="446" fill="#ADD1B2" rx="10" ry="10" style="stroke:#181818;stroke-width:1;"/><path d="M851.8006,450.7031 Q851.3163,450.9531 850.785,451.0781 Q850.2694,451.2031 849.6913,451.2031 Q847.6288,451.2031 846.535,449.8438 Q845.4569,448.4844 845.4569,445.9063 Q845.4569,443.3281 846.535,441.9688 Q847.6288,440.6094 849.6913,440.6094 Q850.2694,440.6094 850.8006,440.7344 Q851.3319,440.8594 851.8006,441.0938 L851.8006,443.3438 Q851.285,442.8594 850.785,442.6406 Q850.3006,442.4219 849.785,442.4219 Q848.6756,442.4219 848.1131,443.2969 Q847.5506,444.1719 847.5506,445.9063 Q847.5506,447.625 848.1131,448.5156 Q848.6756,449.3906 849.785,449.3906 Q850.3006,449.3906 850.785,449.1719 Q851.285,448.9375 851.8006,448.4688 L851.8006,450.7031 Z " fill="#000000"/><text fill="#FFFFFF" font-family="sans-serif" font-size="14" font-weight="bold" lengthAdjust="spacing" textLength="92.7842" x="862.41" y="450.8467">BorderPane</text><line style="stroke:#888888;stroke-width:0.5;" x1="836.41" x2="957.1942" y1="461" y2="461"/><line style="stroke:#888888;stroke-width:0.5;" x1="836.41" x2="957.1942" y1="469" y2="469"/></g><!--class GridPane--><g class="entity" data-qualified-name="GridPane" data-source-line="38" id="ent0021"><rect fill="#E8A838" height="46" rx="5" ry="5" style="stroke:#888888;stroke-width:0.5;" width="102.3857" x="993.61" y="431"/><ellipse cx="1007.61" cy="446" fill="#ADD1B2" rx="10" ry="10" style="stroke:#181818;stroke-width:1;"/><path d="M1010.0006,450.7031 Q1009.5163,450.9531 1008.985,451.0781 Q1008.4694,451.2031 1007.8913,451.2031 Q1005.8288,451.2031 1004.735,449.8438 Q1003.6569,448.4844 1003.6569,445.9063 Q1003.6569,443.3281 1004.735,441.9688 Q1005.8288,440.6094 1007.8913,440.6094 Q1008.4694,440.6094 1009.0006,440.7344 Q1009.5319,440.8594 1010.0006,441.0938 L1010.0006,443.3438 Q1009.485,442.8594 1008.985,442.6406 Q1008.5006,442.4219 1007.985,442.4219 Q1006.8756,442.4219 1006.3131,443.2969 Q1005.7506,444.1719 1005.7506,445.9063 Q1005.7506,447.625 1006.3131,448.5156 Q1006.8756,449.3906 1007.985,449.3906 Q1008.5006,449.3906 1008.985,449.1719 Q1009.485,448.9375 1010.0006,448.4688 L1010.0006,450.7031 Z " fill="#000000"/><text fill="#FFFFFF" font-family="sans-serif" font-size="14" font-weight="bold" lengthAdjust="spacing" textLength="72.3857" x="1020.61" y="450.8467">GridPane</text><line style="stroke:#888888;stroke-width:0.5;" x1="994.61" x2="1094.9957" y1="461" y2="461"/><line style="stroke:#888888;stroke-width:0.5;" x1="994.61" x2="1094.9957" y1="469" y2="469"/></g><!--reverse link Node to Parent--><g class="link" data-entity-1="ent0002" data-entity-2="ent0003" data-link-type="extension" data-source-line="40" id="lnk22"><path codeLine="40" d="M717.5832,64.2984 C694.8132,81.8484 677.48,95.19 654.72,112.73" fill="none" id="Node-backto-Parent" style="stroke:#181818;stroke-width:1;"/><polygon fill="none" points="731.84,53.31,713.9204,59.5462,721.2461,69.0507,731.84,53.31" style="stroke:#181818;stroke-width:1;"/></g><!--reverse link Node to Shape--><g class="link" data-entity-1="ent0002" data-entity-2="ent0005" data-link-type="extension" data-source-line="41" id="lnk23"><path codeLine="41" d="M803.5187,64.3989 C825.9587,81.9489 842.89,95.19 865.32,112.73" fill="none" id="Node-backto-Shape" style="stroke:#181818;stroke-width:1;"/><polygon fill="none" points="789.34,53.31,799.8224,69.1252,807.215,59.6727,789.34,53.31" style="stroke:#181818;stroke-width:1;"/></g><!--reverse link Node to ImageView--><g class="link" data-entity-1="ent0002" data-entity-2="ent0004" data-link-type="extension" data-source-line="42" id="lnk24"><path codeLine="42" d="M760.8,71.31 C760.8,88.86 760.8,95.19 760.8,112.73" fill="none" id="Node-backto-ImageView" style="stroke:#181818;stroke-width:1;"/><polygon fill="none" points="760.8,53.31,754.8,71.31,766.8,71.31,760.8,53.31" style="stroke:#181818;stroke-width:1;"/></g><!--reverse link Parent to Region--><g class="link" data-entity-1="ent0003" data-entity-2="ent0006" data-link-type="extension" data-source-line="44" id="lnk25"><path codeLine="44" d="M591.6011,172.2242 C574.5611,189.7742 563.47,201.19 546.43,218.73" fill="none" id="Parent-backto-Region" style="stroke:#181818;stroke-width:1;"/><polygon fill="none" points="604.14,159.31,587.2964,168.0445,595.9058,176.4038,604.14,159.31" style="stroke:#181818;stroke-width:1;"/></g><!--reverse link Parent to Group--><g class="link" data-entity-1="ent0003" data-entity-2="ent0007" data-link-type="extension" data-source-line="45" id="lnk26"><path codeLine="45" d="M631.5883,177.1258 C634.1183,194.6758 635.06,201.19 637.59,218.73" fill="none" id="Parent-backto-Group" style="stroke:#181818;stroke-width:1;"/><polygon fill="none" points="629.02,159.31,625.6497,177.9819,637.5269,176.2697,629.02,159.31" style="stroke:#181818;stroke-width:1;"/></g><!--reverse link Region to Control--><g class="link" data-entity-1="ent0006" data-entity-2="ent0008" data-link-type="extension" data-source-line="47" id="lnk27"><path codeLine="47" d="M471.3116,274.4302 C441.5516,291.9202 415.84,307.02 386.02,324.55" fill="none" id="Region-backto-Control" style="stroke:#181818;stroke-width:1;"/><polygon fill="none" points="486.83,265.31,468.2715,269.2574,474.3516,279.603,486.83,265.31" style="stroke:#181818;stroke-width:1;"/></g><!--reverse link Region to Pane--><g class="link" data-entity-1="ent0006" data-entity-2="ent0009" data-link-type="extension" data-source-line="48" id="lnk28"><path codeLine="48" d="M583.9461,268.6267 C630.2861,288.7067 686.94,313.26 729.97,331.9" fill="none" id="Region-backto-Pane" style="stroke:#181818;stroke-width:1;"/><polygon fill="none" points="567.43,261.47,581.5605,274.1321,586.3317,263.1214,567.43,261.47" style="stroke:#181818;stroke-width:1;"/></g><!--reverse link Shape to Circle--><g class="link" data-entity-1="ent0005" data-entity-2="ent0010" data-link-type="extension" data-source-line="50" id="lnk29"><path codeLine="50" d="M852.634,170.7146 C831.204,188.2646 815.42,201.19 794,218.73" fill="none" id="Shape-backto-Circle" style="stroke:#181818;stroke-width:1;"/><polygon fill="none" points="866.56,159.31,848.8324,166.0726,856.4355,175.3567,866.56,159.31" style="stroke:#181818;stroke-width:1;"/></g><!--reverse link Shape to Rectangle--><g class="link" data-entity-1="ent0005" data-entity-2="ent0011" data-link-type="extension" data-source-line="51" id="lnk30"><path codeLine="51" d="M893.8,177.31 C893.8,194.86 893.8,201.19 893.8,218.73" fill="none" id="Shape-backto-Rectangle" style="stroke:#181818;stroke-width:1;"/><polygon fill="none" points="893.8,159.31,887.8,177.31,899.8,177.31,893.8,159.31" style="stroke:#181818;stroke-width:1;"/></g><!--reverse link Shape to Line--><g class="link" data-entity-1="ent0005" data-entity-2="ent0012" data-link-type="extension" data-source-line="52" id="lnk31"><path codeLine="52" d="M933.411,171.0424 C953.831,188.5924 968.48,201.19 988.89,218.73" fill="none" id="Shape-backto-Line" style="stroke:#181818;stroke-width:1;"/><polygon fill="none" points="919.76,159.31,929.5002,175.5927,937.3218,166.4921,919.76,159.31" style="stroke:#181818;stroke-width:1;"/></g><!--reverse link Control to Button--><g class="link" data-entity-1="ent0008" data-entity-2="ent0013" data-link-type="extension" data-source-line="54" id="lnk32"><path codeLine="54" d="M286.3694,369.4591 C238.1094,385.5991 175.81,406.71 107.8,431 C102.35,432.95 96.62,435.03 90.97,437.11" fill="none" id="Control-backto-Button" style="stroke:#181818;stroke-width:1;"/><polygon fill="none" points="303.44,363.75,284.4663,363.7689,288.2724,375.1493,303.44,363.75" style="stroke:#181818;stroke-width:1;"/></g><!--reverse link Control to Label--><g class="link" data-entity-1="ent0008" data-entity-2="ent0014" data-link-type="extension" data-source-line="55" id="lnk33"><path codeLine="55" d="M292.1883,380.0931 C259.7383,398.2331 230.03,414.85 198.48,432.49" fill="none" id="Control-backto-Label" style="stroke:#181818;stroke-width:1;"/><polygon fill="none" points="307.9,371.31,289.2606,374.8558,295.116,385.3303,307.9,371.31" style="stroke:#181818;stroke-width:1;"/></g><!--reverse link Control to TextField--><g class="link" data-entity-1="ent0008" data-entity-2="ent0015" data-link-type="extension" data-source-line="56" id="lnk34"><path codeLine="56" d="M324.9647,386.706 C314.3347,404.256 308.92,413.19 298.3,430.73" fill="none" id="Control-backto-TextField" style="stroke:#181818;stroke-width:1;"/><polygon fill="none" points="334.29,371.31,319.8326,383.5976,330.0967,389.8145,334.29,371.31" style="stroke:#181818;stroke-width:1;"/></g><!--reverse link Control to Slider--><g class="link" data-entity-1="ent0008" data-entity-2="ent0016" data-link-type="extension" data-source-line="57" id="lnk35"><path codeLine="57" d="M370.322,386.7681 C380.792,404.3181 386.07,413.19 396.53,430.73" fill="none" id="Control-backto-Slider" style="stroke:#181818;stroke-width:1;"/><polygon fill="none" points="361.1,371.31,365.1693,389.8422,375.4747,383.6941,361.1,371.31" style="stroke:#181818;stroke-width:1;"/></g><!--reverse link Control to CheckBox--><g class="link" data-entity-1="ent0008" data-entity-2="ent0017" data-link-type="extension" data-source-line="58" id="lnk36"><path codeLine="58" d="M403.881,380.0224 C435.501,397.5124 463.54,413.02 495.22,430.55" fill="none" id="Control-backto-CheckBox" style="stroke:#181818;stroke-width:1;"/><polygon fill="none" points="388.13,371.31,400.9769,385.2727,406.7851,374.772,388.13,371.31" style="stroke:#181818;stroke-width:1;"/></g><!--reverse link Pane to VBox--><g class="link" data-entity-1="ent0009" data-entity-2="ent0018" data-link-type="extension" data-source-line="60" id="lnk37"><path codeLine="60" d="M729.2141,383.9188 C711.3341,401.4688 699.38,413.19 681.51,430.73" fill="none" id="Pane-backto-VBox" style="stroke:#181818;stroke-width:1;"/><polygon fill="none" points="742.06,371.31,725.0111,379.6369,733.417,388.2008,742.06,371.31" style="stroke:#181818;stroke-width:1;"/></g><!--reverse link Pane to HBox--><g class="link" data-entity-1="ent0009" data-entity-2="ent0019" data-link-type="extension" data-source-line="61" id="lnk38"><path codeLine="61" d="M764.8,389.31 C764.8,406.86 764.8,413.19 764.8,430.73" fill="none" id="Pane-backto-HBox" style="stroke:#181818;stroke-width:1;"/><polygon fill="none" points="764.8,371.31,758.8,389.31,770.8,389.31,764.8,371.31" style="stroke:#181818;stroke-width:1;"/></g><!--reverse link Pane to BorderPane--><g class="link" data-entity-1="ent0009" data-entity-2="ent0020" data-link-type="extension" data-source-line="62" id="lnk39"><path codeLine="62" d="M807.2576,382.4512 C829.5276,400.0012 846.27,413.19 868.53,430.73" fill="none" id="Pane-backto-BorderPane" style="stroke:#181818;stroke-width:1;"/><polygon fill="none" points="793.12,371.31,803.5439,387.1638,810.9714,377.7387,793.12,371.31" style="stroke:#181818;stroke-width:1;"/></g><!--reverse link Pane to GridPane--><g class="link" data-entity-1="ent0009" data-entity-2="ent0021" data-link-type="extension" data-source-line="63" id="lnk40"><path codeLine="63" d="M816.5734,368.2281 C865.2434,386.3081 936.98,412.95 993.27,433.86" fill="none" id="Pane-backto-GridPane" style="stroke:#181818;stroke-width:1;"/><polygon fill="none" points="799.7,361.96,814.484,373.8526,818.6627,362.6037,799.7,361.96" style="stroke:#181818;stroke-width:1;"/></g><?plantuml-src PPBBZjiW543tV0KIwv6Ss8c9r4qJQJeZLLNLLBF7SEEWC11XeanV_ruCE87OEywzS1_7mqdgCxFi7NUCdtfhBbhiZ38MEylqu4EW7HfkMG8ExABSiz5kBty3NZHPa2is39-TixAxE7ZbHeUSwZ4bt7Q_5E3EA955XoCJvYfrZmzC3P15KcDMWyMB2Zs-YFyWxB-jiG9ix9zGIWCSgqLqFKe7w1z2h1lyUDoboz-C04pQ0-LKp8BVmmemgPjcim8KuUixw-5DmXMJ1Lijs_Nislx8plvHNjMRPVSO_06zD1gJhjsigYwz-SNFUCPapUk6rhFtTduAQnGcq3QyvlCkjQy6bD6QelJWJbgkxZrCfRbZkf_nhrBVKMBRYtDZcwbaIcGT-3OeD0qJYVs43_SiGGbCbYs3TPNuNadluw7IxWZyj3KVc5ILx_OmLNiBB8qGqSiSHSN5kDFwf2Yt4BH--llqb1nc8DZ9pZUV22NV0KTF1GgM44e60qfg2ZPsWb3y2M9Ia96JcuaSZXeGccG752sKB4WeqSr1YQE2aaq6nc5rAZnkFpk-bCVxrZCuRVm_?></g></svg>