<?plantuml 1.2026.1?><svg xmlns="http://www.w3.org/2000/svg" xmlns:xlink="http://www.w3.org/1999/xlink" contentStyleType="text/css" data-diagram-type="CLASS" height="417px" preserveAspectRatio="none" style="width:1387px;height:417px;" version="1.1" viewBox="0 0 1387 417" width="1387.5px" zoomAndPan="magnify"><defs/><g><!--class Event--><g class="entity" data-qualified-name="Event" data-source-line="14" id="ent0002"><rect fill="#7F8C8D" height="72" rx="7.5" ry="7.5" style="stroke:#888888;stroke-width:0.75;" width="124.875" x="762.27" y="10.5"/><ellipse cx="784.77" cy="34.5" fill="#A9DCDF" rx="16.5" ry="16.5" style="stroke:#181818;stroke-width:1.5;"/><path d="M784.4888,28.4063 L782.8716,35.5781 L786.1294,35.5781 L784.4888,28.4063 Z M782.3794,25.2422 L786.6216,25.2422 L791.3325,42.75 L787.8872,42.75 L786.8091,38.4141 L782.1684,38.4141 L781.1138,42.75 L777.6684,42.75 L782.3794,25.2422 Z " fill="#000000"/><text fill="#FFFFFF" font-family="sans-serif" font-size="24" font-style="italic" font-weight="bold" lengthAdjust="spacing" textLength="76.875" x="805.77" y="42.8086">Event</text><line style="stroke:#888888;stroke-width:0.75;" x1="763.77" x2="885.645" y1="58.5" y2="58.5"/><line style="stroke:#888888;stroke-width:0.75;" x1="763.77" x2="885.645" y1="70.5" y2="70.5"/></g><!--class InputEvent--><g class="entity" data-qualified-name="InputEvent" data-source-line="16" id="ent0003"><rect fill="#34495E" height="72" rx="7.5" ry="7.5" style="stroke:#888888;stroke-width:0.75;" width="196.6289" x="310.89" y="172.5"/><ellipse cx="333.39" cy="196.5" fill="#A9DCDF" rx="16.5" ry="16.5" style="stroke:#181818;stroke-width:1.5;"/><path d="M333.1088,190.4063 L331.4916,197.5781 L334.7494,197.5781 L333.1088,190.4063 Z M330.9994,187.2422 L335.2416,187.2422 L339.9525,204.75 L336.5072,204.75 L335.4291,200.4141 L330.7884,200.4141 L329.7338,204.75 L326.2884,204.75 L330.9994,187.2422 Z " fill="#000000"/><text fill="#FFFFFF" font-family="sans-serif" font-size="24" font-style="italic" font-weight="bold" lengthAdjust="spacing" textLength="148.6289" x="354.39" y="204.8086">InputEvent</text><line style="stroke:#888888;stroke-width:0.75;" x1="312.39" x2="506.0189" y1="220.5" y2="220.5"/><line style="stroke:#888888;stroke-width:0.75;" x1="312.39" x2="506.0189" y1="232.5" y2="232.5"/></g><!--class ActionEvent--><g class="entity" data-qualified-name="ActionEvent" data-source-line="17" id="ent0004"><rect fill="#E74C3C" height="72" rx="7.5" ry="7.5" style="stroke:#888888;stroke-width:0.75;" width="233.707" x="559.35" y="172.5"/><ellipse cx="581.85" cy="196.5" fill="#ADD1B2" rx="16.5" ry="16.5" style="stroke:#181818;stroke-width:1.5;"/><path d="M585.5297,204.9844 Q584.7094,205.4063 583.7953,205.6172 Q582.9047,205.8516 581.8969,205.8516 Q578.3578,205.8516 576.4828,203.5078 Q574.6312,201.1641 574.6312,196.7578 Q574.6312,192.3516 576.4828,190.0313 Q578.3578,187.6875 581.8969,187.6875 Q582.9047,187.6875 583.8187,187.8984 Q584.7328,188.1094 585.5297,188.5313 L585.5297,192.375 Q584.6391,191.5547 583.7953,191.1797 Q582.9516,190.7813 582.0609,190.7813 Q580.1625,190.7813 579.2016,192.3047 Q578.2406,193.8047 578.2406,196.7578 Q578.2406,199.7109 579.2016,201.2344 Q580.1625,202.7344 582.0609,202.7344 Q582.9516,202.7344 583.7953,202.3594 Q584.6391,201.9609 585.5297,201.1406 L585.5297,204.9844 Z " fill="#000000"/><text fill="#FFFFFF" font-family="sans-serif" font-size="24" font-weight="bold" lengthAdjust="spacing" textLength="185.707" x="602.85" y="204.8086">&#127919; ActionEvent</text><line style="stroke:#888888;stroke-width:0.75;" x1="560.85" x2="791.557" y1="220.5" y2="220.5"/><line style="stroke:#888888;stroke-width:0.75;" x1="560.85" x2="791.557" y1="232.5" y2="232.5"/></g><!--class WindowEvent--><g class="entity" data-qualified-name="WindowEvent" data-source-line="18" id="ent0005"><rect fill="#1A5276" height="72" rx="7.5" ry="7.5" style="stroke:#888888;stroke-width:0.75;" width="255.2578" x="845.565" y="172.5"/><ellipse cx="868.065" cy="196.5" fill="#ADD1B2" rx="16.5" ry="16.5" style="stroke:#181818;stroke-width:1.5;"/><path d="M871.7447,204.9844 Q870.9244,205.4063 870.0103,205.6172 Q869.1197,205.8516 868.1119,205.8516 Q864.5728,205.8516 862.6978,203.5078 Q860.8463,201.1641 860.8463,196.7578 Q860.8463,192.3516 862.6978,190.0313 Q864.5728,187.6875 868.1119,187.6875 Q869.1197,187.6875 870.0338,187.8984 Q870.9478,188.1094 871.7447,188.5313 L871.7447,192.375 Q870.8541,191.5547 870.0103,191.1797 Q869.1666,190.7813 868.2759,190.7813 Q866.3775,190.7813 865.4166,192.3047 Q864.4556,193.8047 864.4556,196.7578 Q864.4556,199.7109 865.4166,201.2344 Q866.3775,202.7344 868.2759,202.7344 Q869.1666,202.7344 870.0103,202.3594 Q870.8541,201.9609 871.7447,201.1406 L871.7447,204.9844 Z " fill="#000000"/><text fill="#FFFFFF" font-family="sans-serif" font-size="24" font-weight="bold" lengthAdjust="spacing" textLength="207.2578" x="889.065" y="204.8086">&#129695; WindowEvent</text><line style="stroke:#888888;stroke-width:0.75;" x1="847.065" x2="1099.3228" y1="220.5" y2="220.5"/><line style="stroke:#888888;stroke-width:0.75;" x1="847.065" x2="1099.3228" y1="232.5" y2="232.5"/></g><!--class ScrollEvent--><g class="entity" data-qualified-name="ScrollEvent" data-source-line="19" id="ent0006"><rect fill="#8E44AD" height="72" rx="7.5" ry="7.5" style="stroke:#888888;stroke-width:0.75;" width="223.9219" x="1153.74" y="172.5"/><ellipse cx="1176.24" cy="196.5" fill="#ADD1B2" rx="16.5" ry="16.5" style="stroke:#181818;stroke-width:1.5;"/><path d="M1179.9197,204.9844 Q1179.0994,205.4063 1178.1853,205.6172 Q1177.2947,205.8516 1176.2869,205.8516 Q1172.7478,205.8516 1170.8728,203.5078 Q1169.0213,201.1641 1169.0213,196.7578 Q1169.0213,192.3516 1170.8728,190.0313 Q1172.7478,187.6875 1176.2869,187.6875 Q1177.2947,187.6875 1178.2088,187.8984 Q1179.1228,188.1094 1179.9197,188.5313 L1179.9197,192.375 Q1179.0291,191.5547 1178.1853,191.1797 Q1177.3416,190.7813 1176.4509,190.7813 Q1174.5525,190.7813 1173.5916,192.3047 Q1172.6306,193.8047 1172.6306,196.7578 Q1172.6306,199.7109 1173.5916,201.2344 Q1174.5525,202.7344 1176.4509,202.7344 Q1177.3416,202.7344 1178.1853,202.3594 Q1179.0291,201.9609 1179.9197,201.1406 L1179.9197,204.9844 Z " fill="#000000"/><text fill="#FFFFFF" font-family="sans-serif" font-size="24" font-weight="bold" lengthAdjust="spacing" textLength="175.9219" x="1197.24" y="204.8086">&#127906; ScrollEvent</text><line style="stroke:#888888;stroke-width:0.75;" x1="1155.24" x2="1376.1619" y1="220.5" y2="220.5"/><line style="stroke:#888888;stroke-width:0.75;" x1="1155.24" x2="1376.1619" y1="232.5" y2="232.5"/></g><!--class MouseEvent--><g class="entity" data-qualified-name="MouseEvent" data-source-line="21" id="ent0007"><rect fill="#E8A838" height="72" rx="7.5" ry="7.5" style="stroke:#888888;stroke-width:0.75;" width="236.4" x="10.5" y="334.5"/><ellipse cx="33" cy="358.5" fill="#ADD1B2" rx="16.5" ry="16.5" style="stroke:#181818;stroke-width:1.5;"/><path d="M36.6797,366.9844 Q35.8594,367.4063 34.9453,367.6172 Q34.0547,367.8516 33.0469,367.8516 Q29.5078,367.8516 27.6328,365.5078 Q25.7813,363.1641 25.7813,358.7578 Q25.7813,354.3516 27.6328,352.0313 Q29.5078,349.6875 33.0469,349.6875 Q34.0547,349.6875 34.9688,349.8984 Q35.8828,350.1094 36.6797,350.5313 L36.6797,354.375 Q35.7891,353.5547 34.9453,353.1797 Q34.1016,352.7813 33.2109,352.7813 Q31.3125,352.7813 30.3516,354.3047 Q29.3906,355.8047 29.3906,358.7578 Q29.3906,361.7109 30.3516,363.2344 Q31.3125,364.7344 33.2109,364.7344 Q34.1016,364.7344 34.9453,364.3594 Q35.7891,363.9609 36.6797,363.1406 L36.6797,366.9844 Z " fill="#000000"/><text fill="#FFFFFF" font-family="sans-serif" font-size="24" font-weight="bold" lengthAdjust="spacing" textLength="188.4" x="54" y="366.8086">&#128433;&#65039; MouseEvent</text><line style="stroke:#888888;stroke-width:0.75;" x1="12" x2="245.4" y1="382.5" y2="382.5"/><line style="stroke:#888888;stroke-width:0.75;" x1="12" x2="245.4" y1="394.5" y2="394.5"/></g><!--class KeyEvent--><g class="entity" data-qualified-name="KeyEvent" data-source-line="22" id="ent0008"><rect fill="#27AE60" height="72" rx="7.5" ry="7.5" style="stroke:#888888;stroke-width:0.75;" width="218.3906" x="300" y="334.5"/><ellipse cx="322.5" cy="358.5" fill="#ADD1B2" rx="16.5" ry="16.5" style="stroke:#181818;stroke-width:1.5;"/><path d="M326.1797,366.9844 Q325.3594,367.4063 324.4453,367.6172 Q323.5547,367.8516 322.5469,367.8516 Q319.0078,367.8516 317.1328,365.5078 Q315.2813,363.1641 315.2813,358.7578 Q315.2813,354.3516 317.1328,352.0313 Q319.0078,349.6875 322.5469,349.6875 Q323.5547,349.6875 324.4688,349.8984 Q325.3828,350.1094 326.1797,350.5313 L326.1797,354.375 Q325.2891,353.5547 324.4453,353.1797 Q323.6016,352.7813 322.7109,352.7813 Q320.8125,352.7813 319.8516,354.3047 Q318.8906,355.8047 318.8906,358.7578 Q318.8906,361.7109 319.8516,363.2344 Q320.8125,364.7344 322.7109,364.7344 Q323.6016,364.7344 324.4453,364.3594 Q325.2891,363.9609 326.1797,363.1406 L326.1797,366.9844 Z " fill="#000000"/><text fill="#FFFFFF" font-family="sans-serif" font-size="24" font-weight="bold" lengthAdjust="spacing" textLength="170.3906" x="343.5" y="366.8086">&#9000;&#65039; KeyEvent</text><line style="stroke:#888888;stroke-width:0.75;" x1="301.5" x2="516.8906" y1="382.5" y2="382.5"/><line style="stroke:#888888;stroke-width:0.75;" x1="301.5" x2="516.8906" y1="394.5" y2="394.5"/></g><!--class TouchEvent--><g class="entity" data-qualified-name="TouchEvent" data-source-line="23" id="ent0009"><rect fill="#00838F" height="72" rx="7.5" ry="7.5" style="stroke:#888888;stroke-width:0.75;" width="225.5583" x="570.915" y="334.5"/><ellipse cx="593.415" cy="358.5" fill="#ADD1B2" rx="16.5" ry="16.5" style="stroke:#181818;stroke-width:1.5;"/><path d="M597.0947,366.9844 Q596.2744,367.4063 595.3603,367.6172 Q594.4697,367.8516 593.4619,367.8516 Q589.9228,367.8516 588.0478,365.5078 Q586.1963,363.1641 586.1963,358.7578 Q586.1963,354.3516 588.0478,352.0313 Q589.9228,349.6875 593.4619,349.6875 Q594.4697,349.6875 595.3838,349.8984 Q596.2978,350.1094 597.0947,350.5313 L597.0947,354.375 Q596.2041,353.5547 595.3603,353.1797 Q594.5166,352.7813 593.6259,352.7813 Q591.7275,352.7813 590.7666,354.3047 Q589.8056,355.8047 589.8056,358.7578 Q589.8056,361.7109 590.7666,363.2344 Q591.7275,364.7344 593.6259,364.7344 Q594.5166,364.7344 595.3603,364.3594 Q596.2041,363.9609 597.0947,363.1406 L597.0947,366.9844 Z " fill="#000000"/><text fill="#FFFFFF" font-family="sans-serif" font-size="24" font-weight="bold" lengthAdjust="spacing" textLength="177.5583" x="614.415" y="366.8086">&#128070; TouchEvent</text><line style="stroke:#888888;stroke-width:0.75;" x1="572.415" x2="794.9733" y1="382.5" y2="382.5"/><line style="stroke:#888888;stroke-width:0.75;" x1="572.415" x2="794.9733" y1="394.5" y2="394.5"/></g><!--reverse link Event to InputEvent--><g class="link" data-entity-1="ent0002" data-entity-2="ent0003" data-link-type="extension" data-source-line="25" id="lnk10"><path codeLine="25" d="M736.3774,81.7975 C667.0174,108.3325 580.185,141.57 501.09,171.84" fill="none" id="Event-backto-InputEvent" style="stroke:#181818;stroke-width:1.5;"/><polygon fill="none" points="761.595,72.15,733.1616,73.3916,739.5932,90.2033,761.595,72.15" style="stroke:#181818;stroke-width:1.5;"/></g><!--reverse link Event to ActionEvent--><g class="link" data-entity-1="ent0002" data-entity-2="ent0004" data-link-type="extension" data-source-line="26" id="lnk11"><path codeLine="26" d="M773.6832,102.6292 C748.9332,129.1492 733.455,145.695 708.72,172.185" fill="none" id="Event-backto-ActionEvent" style="stroke:#181818;stroke-width:1.5;"/><polygon fill="none" points="792.105,82.89,767.1035,96.4886,780.2629,108.7698,792.105,82.89" style="stroke:#181818;stroke-width:1.5;"/></g><!--reverse link Event to WindowEvent--><g class="link" data-entity-1="ent0002" data-entity-2="ent0005" data-link-type="extension" data-source-line="27" id="lnk12"><path codeLine="27" d="M875.7168,102.6292 C900.4668,129.1492 915.945,145.695 940.68,172.185" fill="none" id="Event-backto-WindowEvent" style="stroke:#181818;stroke-width:1.5;"/><polygon fill="none" points="857.295,82.89,869.1371,108.7698,882.2965,96.4886,857.295,82.89" style="stroke:#181818;stroke-width:1.5;"/></g><!--reverse link Event to ScrollEvent--><g class="link" data-entity-1="ent0002" data-entity-2="ent0006" data-link-type="extension" data-source-line="28" id="lnk13"><path codeLine="28" d="M913.2804,79.9402 C986.5254,106.3402 1082.67,141.015 1168.08,171.81" fill="none" id="Event-backto-ScrollEvent" style="stroke:#181818;stroke-width:1.5;"/><polygon fill="none" points="887.88,70.785,910.2287,88.407,916.3322,71.4734,887.88,70.785" style="stroke:#181818;stroke-width:1.5;"/></g><!--reverse link InputEvent to MouseEvent--><g class="link" data-entity-1="ent0003" data-entity-2="ent0007" data-link-type="extension" data-source-line="30" id="lnk14"><path codeLine="30" d="M324.1506,258.2034 C277.5456,284.6184 237.285,307.455 190.59,333.915" fill="none" id="InputEvent-backto-MouseEvent" style="stroke:#181818;stroke-width:1.5;"/><polygon fill="none" points="347.64,244.89,319.7128,250.3736,328.5884,266.0332,347.64,244.89" style="stroke:#181818;stroke-width:1.5;"/></g><!--reverse link InputEvent to KeyEvent--><g class="link" data-entity-1="ent0003" data-entity-2="ent0008" data-link-type="extension" data-source-line="31" id="lnk15"><path codeLine="31" d="M409.2,271.89 C409.2,298.41 409.2,307.695 409.2,334.185" fill="none" id="InputEvent-backto-KeyEvent" style="stroke:#181818;stroke-width:1.5;"/><polygon fill="none" points="409.2,244.89,400.2,271.89,418.2,271.89,409.2,244.89" style="stroke:#181818;stroke-width:1.5;"/></g><!--reverse link InputEvent to TouchEvent--><g class="link" data-entity-1="ent0003" data-entity-2="ent0009" data-link-type="extension" data-source-line="32" id="lnk16"><path codeLine="32" d="M492.8051,258.4204 C538.4201,284.8354 577.44,307.455 623.13,333.915" fill="none" id="InputEvent-backto-TouchEvent" style="stroke:#181818;stroke-width:1.5;"/><polygon fill="none" points="469.44,244.89,488.295,266.2088,497.3152,250.632,469.44,244.89" style="stroke:#181818;stroke-width:1.5;"/></g><?plantuml-src PL6xJiCm5Dtz5LVDN9IsQMCabe90gX1JaPXTnscZ6hko7QhoM9aGY8Mr4XDYGMny3py0du2RjFYgpNOUz_gS6ykP5D3Qwn8xBTIC6NO98yQdOwDBbHrfgGqumvJrab0EkJAHirAw4wtSiBZsEtf8v99PstVE5AFIYG7NglB4svPgsYryX96M6LBjX6LwNgWnv4nQWPHrCAE4WLPCjZV23G7_7MgJ2LFdZoYb5RbwhQRcay89SaS86rbVZxlryF6LBmbHcbDEinrre6QbMriwIRBV5QGM6h_Bnm_eSrTeLUaDO1PZY4IQy0uF_lSbN1JATmn-X25giMuxxQ7zhp3aHaiP_0ZxZY99c8_yF_3o-VFr16Uwj2AC1EWJKKOxT3Fm_V2syf-AHN1l04Jjb8bU79O_tyEvBlaaU0E4A8xzufoG6XxSDfleT9X55y8qEWIcKLz2qB-enD1iHzhKs152vZy0?></g></svg>