<?plantuml 1.2026.1?><svg xmlns="http://www.w3.org/2000/svg" xmlns:xlink="http://www.w3.org/1999/xlink" contentStyleType="text/css" data-diagram-type="CLASS" height="376px" preserveAspectRatio="none" style="width:280px;height:376px;" version="1.1" viewBox="0 0 280 376" width="280px" zoomAndPan="magnify"><defs/><g><!--class Obs--><g class="entity" data-qualified-name="Obs" data-source-line="15" id="ent0002"><rect fill="#7F8C8D" height="50" rx="5" ry="5" style="stroke:#888888;stroke-width:0.5;" width="149.1279" x="65.53" y="7"/><ellipse cx="81.53" cy="24" fill="#B4A7E5" rx="12" ry="12" style="stroke:#181818;stroke-width:1;"/><path d="M77.5456,19.6563 L77.5456,17.375 L85.3581,17.375 L85.3581,19.6563 L82.7488,19.6563 L82.7488,28.2188 L85.3581,28.2188 L85.3581,30.5 L77.5456,30.5 L77.5456,28.2188 L80.155,28.2188 L80.155,19.6563 L77.5456,19.6563 Z " fill="#000000"/><text fill="#FFFFFF" font-family="sans-serif" font-size="18" font-style="italic" font-weight="bold" lengthAdjust="spacing" textLength="115.1279" x="96.53" y="30.2314">Observable</text><line style="stroke:#888888;stroke-width:0.5;" x1="66.53" x2="213.6579" y1="41" y2="41"/><line style="stroke:#888888;stroke-width:0.5;" x1="66.53" x2="213.6579" y1="49" y2="49"/></g><!--class OV--><g class="entity" data-qualified-name="OV" data-source-line="16" id="ent0003"><rect fill="#34495E" height="50" rx="5" ry="5" style="stroke:#888888;stroke-width:0.5;" width="221.3926" x="29.4" y="85"/><ellipse cx="45.4" cy="102" fill="#B4A7E5" rx="12" ry="12" style="stroke:#181818;stroke-width:1;"/><path d="M41.4156,97.6563 L41.4156,95.375 L49.2281,95.375 L49.2281,97.6563 L46.6188,97.6563 L46.6188,106.2188 L49.2281,106.2188 L49.2281,108.5 L41.4156,108.5 L41.4156,106.2188 L44.025,106.2188 L44.025,97.6563 L41.4156,97.6563 Z " fill="#000000"/><text fill="#FFFFFF" font-family="sans-serif" font-size="18" font-style="italic" font-weight="bold" lengthAdjust="spacing" textLength="172.3975" x="60.4" y="108.2314">ObservableValue</text><rect fill="#FFFFFF" height="22.9531" style="stroke:#888888;stroke-width:1;stroke-dasharray:2,2;" width="12.9951" x="240.7975" y="82"/><text fill="#000000" font-family="sans-serif" font-size="18" font-style="italic" lengthAdjust="spacing" textLength="10.9951" x="241.7975" y="99.708">T</text><line style="stroke:#888888;stroke-width:0.5;" x1="30.4" x2="249.7926" y1="119" y2="119"/><line style="stroke:#888888;stroke-width:0.5;" x1="30.4" x2="249.7926" y1="127" y2="127"/></g><!--class P--><g class="entity" data-qualified-name="P" data-source-line="17" id="ent0004"><rect fill="#1A5276" height="50" rx="5" ry="5" style="stroke:#888888;stroke-width:0.5;" width="137.7383" x="71.23" y="163"/><ellipse cx="87.23" cy="180" fill="#B4A7E5" rx="12" ry="12" style="stroke:#181818;stroke-width:1;"/><path d="M83.2456,175.6563 L83.2456,173.375 L91.0581,173.375 L91.0581,175.6563 L88.4488,175.6563 L88.4488,184.2188 L91.0581,184.2188 L91.0581,186.5 L83.2456,186.5 L83.2456,184.2188 L85.855,184.2188 L85.855,175.6563 L83.2456,175.6563 Z " fill="#000000"/><text fill="#FFFFFF" font-family="sans-serif" font-size="18" font-style="italic" font-weight="bold" lengthAdjust="spacing" textLength="88.7432" x="102.23" y="186.2314">Property</text><rect fill="#FFFFFF" height="22.9531" style="stroke:#888888;stroke-width:1;stroke-dasharray:2,2;" width="12.9951" x="198.9732" y="160"/><text fill="#000000" font-family="sans-serif" font-size="18" font-style="italic" lengthAdjust="spacing" textLength="10.9951" x="199.9732" y="177.708">T</text><line style="stroke:#888888;stroke-width:0.5;" x1="72.23" x2="207.9683" y1="197" y2="197"/><line style="stroke:#888888;stroke-width:0.5;" x1="72.23" x2="207.9683" y1="205" y2="205"/></g><!--class IP--><g class="entity" data-qualified-name="IP" data-source-line="18" id="ent0005"><rect fill="#1A5276" height="50" rx="5" ry="5" style="stroke:#888888;stroke-width:0.5;" width="197.0371" x="41.58" y="241"/><ellipse cx="57.58" cy="258" fill="#A9DCDF" rx="12" ry="12" style="stroke:#181818;stroke-width:1;"/><path d="M57.5019,253.25 L56.2675,258.625 L58.7206,258.625 L57.5019,253.25 Z M55.9081,250.875 L59.08,250.875 L62.6269,264 L60.0331,264 L59.2206,260.75 L55.7519,260.75 L54.9706,264 L52.3769,264 L55.9081,250.875 Z " fill="#000000"/><text fill="#FFFFFF" font-family="sans-serif" font-size="18" font-style="italic" font-weight="bold" lengthAdjust="spacing" textLength="163.0371" x="72.58" y="264.2314">IntegerProperty</text><line style="stroke:#888888;stroke-width:0.5;" x1="42.58" x2="237.6171" y1="275" y2="275"/><line style="stroke:#888888;stroke-width:0.5;" x1="42.58" x2="237.6171" y1="283" y2="283"/></g><!--class SIP--><g class="entity" data-qualified-name="SIP" data-source-line="19" id="ent0006"><rect fill="#27AE60" height="50" rx="5" ry="5" style="stroke:#888888;stroke-width:0.5;" width="266.1895" x="7" y="319"/><ellipse cx="23" cy="336" fill="#ADD1B2" rx="12" ry="12" style="stroke:#181818;stroke-width:1;"/><path d="M26,342.125 Q25.3906,342.4375 24.7031,342.5938 Q24.0313,342.75 23.2813,342.75 Q20.625,342.75 19.2344,341 Q17.8438,339.25 17.8438,335.9531 Q17.8438,332.6406 19.2344,330.8906 Q20.625,329.1406 23.2813,329.1406 Q24.0313,329.1406 24.7188,329.2969 Q25.4063,329.4531 26,329.7656 L26,332.6563 Q25.3281,332.0469 24.7031,331.7656 Q24.0781,331.4688 23.4063,331.4688 Q21.9844,331.4688 21.25,332.6094 Q20.5313,333.7344 20.5313,335.9531 Q20.5313,338.1719 21.25,339.2969 Q21.9844,340.4219 23.4063,340.4219 Q24.0781,340.4219 24.7031,340.1406 Q25.3281,339.8594 26,339.2344 L26,342.125 Z " fill="#000000"/><text fill="#FFFFFF" font-family="sans-serif" font-size="18" font-weight="bold" lengthAdjust="spacing" textLength="232.1895" x="38" y="342.2314">SimpleIntegerProperty</text><line style="stroke:#888888;stroke-width:0.5;" x1="8" x2="272.1895" y1="353" y2="353"/><line style="stroke:#888888;stroke-width:0.5;" x1="8" x2="272.1895" y1="361" y2="361"/></g><!--reverse link Obs to OV--><g class="link" data-entity-1="ent0002" data-entity-2="ent0003" data-link-type="extension" data-source-line="21" id="lnk7"><path codeLine="21" d="M140.09,75.47 C140.09,84.14 140.09,75.91 140.09,84.58" fill="none" id="Obs-backto-OV" style="stroke:#181818;stroke-width:1;"/><polygon fill="none" points="140.09,57.47,134.09,75.47,146.09,75.47,140.09,57.47" style="stroke:#181818;stroke-width:1;"/></g><!--reverse link OV to P--><g class="link" data-entity-1="ent0003" data-entity-2="ent0004" data-link-type="extension" data-source-line="22" id="lnk8"><path codeLine="22" d="M140.09,153.47 C140.09,162.14 140.09,153.91 140.09,162.58" fill="none" id="OV-backto-P" style="stroke:#181818;stroke-width:1;"/><polygon fill="none" points="140.09,135.47,134.09,153.47,146.09,153.47,140.09,135.47" style="stroke:#181818;stroke-width:1;"/></g><!--reverse link P to IP--><g class="link" data-entity-1="ent0004" data-entity-2="ent0005" data-link-type="extension" data-source-line="23" id="lnk9"><path codeLine="23" d="M140.09,231.47 C140.09,240.14 140.09,231.91 140.09,240.58" fill="none" id="P-backto-IP" style="stroke:#181818;stroke-width:1;stroke-dasharray:7,7;"/><polygon fill="none" points="140.09,213.47,134.09,231.47,146.09,231.47,140.09,213.47" style="stroke:#181818;stroke-width:1;"/></g><!--reverse link IP to SIP--><g class="link" data-entity-1="ent0005" data-entity-2="ent0006" data-link-type="extension" data-source-line="24" id="lnk10"><path codeLine="24" d="M140.09,309.47 C140.09,318.14 140.09,309.91 140.09,318.58" fill="none" id="IP-backto-SIP" style="stroke:#181818;stroke-width:1;"/><polygon fill="none" points="140.09,291.47,134.09,309.47,146.09,309.47,140.09,291.47" style="stroke:#181818;stroke-width:1;"/></g><?plantuml-src RP5BQyCm48Jl-XLBV4w8tJmS28MsKF2fXfJSrzOw4L4aiv8RqiT_hsmdhGdHIPhvPZL2xg1CZOn7AB0yxDWsHhvORHayet718kE5-wCaLTXe_sgDtwXFWZWTcAL6vvwyPrKqdhBIcewPtY9TsfyrGM6r7BXkZzAUbDb1XThHmBaKOqCCyN2WiP8SrH0dGnhDeHMJLDpU3Ly2mdgsB8dxbqPfcdPYswkNJdlbIVm8eOmdhh0a6BqLZlW32qqZG0VX2D6oIijKtgUsg1jQlp_sz1QYXzbiDQSXdBEjYVtvIkKGnJXFbWk1XGiVKFfBwL4MGZlYQw2Zit_yGctKiTPqZzsqSB94Mao5QAkllyVZq4g4Ojqs5tdOJ2PXgiZoNWkXNm00?></g></svg>