<svg id="container" width="1111.33935546875" xmlns="http://www.w3.org/2000/svg" class="flowchart" height="153" viewBox="0 0 1111.33935546875 153" role="graphics-document document" aria-roledescription="flowchart-v2"><style>#container{font-family:"trebuchet ms",verdana,arial,sans-serif;font-size:16px;fill:#333;}@keyframes edge-animation-frame{from{stroke-dashoffset:0;}}@keyframes dash{to{stroke-dashoffset:0;}}#container .edge-animation-slow{stroke-dasharray:9,5!important;stroke-dashoffset:900;animation:dash 50s linear infinite;stroke-linecap:round;}#container .edge-animation-fast{stroke-dasharray:9,5!important;stroke-dashoffset:900;animation:dash 20s linear infinite;stroke-linecap:round;}#container .error-icon{fill:#552222;}#container .error-text{fill:#552222;stroke:#552222;}#container .edge-thickness-normal{stroke-width:1px;}#container .edge-thickness-thick{stroke-width:3.5px;}#container .edge-pattern-solid{stroke-dasharray:0;}#container .edge-thickness-invisible{stroke-width:0;fill:none;}#container .edge-pattern-dashed{stroke-dasharray:3;}#container .edge-pattern-dotted{stroke-dasharray:2;}#container .marker{fill:#333333;stroke:#333333;}#container .marker.cross{stroke:#333333;}#container svg{font-family:"trebuchet ms",verdana,arial,sans-serif;font-size:16px;}#container p{margin:0;}#container .label{font-family:"trebuchet ms",verdana,arial,sans-serif;color:#333;}#container .cluster-label text{fill:#333;}#container .cluster-label span{color:#333;}#container .cluster-label span p{background-color:transparent;}#container .label text,#container span{fill:#333;color:#333;}#container .node rect,#container .node circle,#container .node ellipse,#container .node polygon,#container .node path{fill:#ECECFF;stroke:#9370DB;stroke-width:1px;}#container .rough-node .label text,#container .node .label text,#container .image-shape .label,#container .icon-shape .label{text-anchor:middle;}#container .node .katex path{fill:#000;stroke:#000;stroke-width:1px;}#container .rough-node .label,#container .node .label,#container .image-shape .label,#container .icon-shape .label{text-align:center;}#container .node.clickable{cursor:pointer;}#container .root .anchor path{fill:#333333!important;stroke-width:0;stroke:#333333;}#container .arrowheadPath{fill:#333333;}#container .edgePath .path{stroke:#333333;stroke-width:2.0px;}#container .flowchart-link{stroke:#333333;fill:none;}#container .edgeLabel{background-color:rgba(232,232,232, 0.8);text-align:center;}#container .edgeLabel p{background-color:rgba(232,232,232, 0.8);}#container .edgeLabel rect{opacity:0.5;background-color:rgba(232,232,232, 0.8);fill:rgba(232,232,232, 0.8);}#container .labelBkg{background-color:rgba(232, 232, 232, 0.5);}#container .cluster rect{fill:#ffffde;stroke:#aaaa33;stroke-width:1px;}#container .cluster text{fill:#333;}#container .cluster span{color:#333;}#container div.mermaidTooltip{position:absolute;text-align:center;max-width:200px;padding:2px;font-family:"trebuchet ms",verdana,arial,sans-serif;font-size:12px;background:hsl(80, 100%, 96.2745098039%);border:1px solid #aaaa33;border-radius:2px;pointer-events:none;z-index:100;}#container .flowchartTitleText{text-anchor:middle;font-size:18px;fill:#333;}#container rect.text{fill:none;stroke-width:0;}#container .icon-shape,#container .image-shape{background-color:rgba(232,232,232, 0.8);text-align:center;}#container .icon-shape p,#container .image-shape p{background-color:rgba(232,232,232, 0.8);padding:2px;}#container .icon-shape rect,#container .image-shape rect{opacity:0.5;background-color:rgba(232,232,232, 0.8);fill:rgba(232,232,232, 0.8);}#container .label-icon{display:inline-block;height:1em;overflow:visible;vertical-align:-0.125em;}#container .node .label-icon path{fill:currentColor;stroke:revert;stroke-width:revert;}#container :root{--mermaid-font-family:"trebuchet ms",verdana,arial,sans-serif;}</style><g><marker id="container_flowchart-v2-pointEnd" class="marker flowchart-v2" viewBox="0 0 10 10" refX="5" refY="5" markerUnits="userSpaceOnUse" markerWidth="8" markerHeight="8" orient="auto"><path d="M 0 0 L 10 5 L 0 10 z" class="arrowMarkerPath" style="stroke-width: 1; stroke-dasharray: 1, 0;"></path></marker><marker id="container_flowchart-v2-pointStart" class="marker flowchart-v2" viewBox="0 0 10 10" refX="4.5" refY="5" markerUnits="userSpaceOnUse" markerWidth="8" markerHeight="8" orient="auto"><path d="M 0 5 L 10 10 L 10 0 z" class="arrowMarkerPath" style="stroke-width: 1; stroke-dasharray: 1, 0;"></path></marker><marker id="container_flowchart-v2-circleEnd" class="marker flowchart-v2" viewBox="0 0 10 10" refX="11" refY="5" markerUnits="userSpaceOnUse" markerWidth="11" markerHeight="11" orient="auto"><circle cx="5" cy="5" r="5" class="arrowMarkerPath" style="stroke-width: 1; stroke-dasharray: 1, 0;"></circle></marker><marker id="container_flowchart-v2-circleStart" class="marker flowchart-v2" viewBox="0 0 10 10" refX="-1" refY="5" markerUnits="userSpaceOnUse" markerWidth="11" markerHeight="11" orient="auto"><circle cx="5" cy="5" r="5" class="arrowMarkerPath" style="stroke-width: 1; stroke-dasharray: 1, 0;"></circle></marker><marker id="container_flowchart-v2-crossEnd" class="marker cross flowchart-v2" viewBox="0 0 11 11" refX="12" refY="5.2" markerUnits="userSpaceOnUse" markerWidth="11" markerHeight="11" orient="auto"><path d="M 1,1 l 9,9 M 10,1 l -9,9" class="arrowMarkerPath" style="stroke-width: 2; stroke-dasharray: 1, 0;"></path></marker><marker id="container_flowchart-v2-crossStart" class="marker cross flowchart-v2" viewBox="0 0 11 11" refX="-1" refY="5.2" markerUnits="userSpaceOnUse" markerWidth="11" markerHeight="11" orient="auto"><path d="M 1,1 l 9,9 M 10,1 l -9,9" class="arrowMarkerPath" style="stroke-width: 2; stroke-dasharray: 1, 0;"></path></marker><g class="root"><g class="clusters"></g><g class="edgePaths"><path d="M123.98,90.5L134.227,90.417C144.475,90.333,164.97,90.167,184.881,90.083C204.792,90,224.121,90,233.785,90L243.449,90" id="L_U_V_0" class="edge-thickness-normal edge-pattern-solid edge-thickness-normal edge-pattern-solid flowchart-link" style=";" data-edge="true" data-et="edge" data-id="L_U_V_0" data-points="W3sieCI6MTIzLjk3OTk2MjQzMTgyNjUyLCJ5Ijo5MC41fSx7IngiOjE4NS40NjQzNDAyMDk5NjA5NCwieSI6OTB9LHsieCI6MjQ3LjQ0ODcxNTIwOTk2MDk0LCJ5Ijo5MH1d" marker-end="url(#container_flowchart-v2-pointEnd)"></path><path d="M448.699,63.944L459.605,61.12C470.511,58.296,492.324,52.648,513.47,49.824C534.615,47,555.095,47,565.334,47L575.574,47" id="L_V_C_0" class="edge-thickness-normal edge-pattern-solid edge-thickness-normal edge-pattern-solid flowchart-link" style=";" data-edge="true" data-et="edge" data-id="L_V_C_0" data-points="W3sieCI6NDQ4LjY5ODcxNTIwOTk2MDk0LCJ5Ijo2My45NDQyOTgwODA1NDE5N30seyJ4Ijo1MTQuMTM2MjE1MjA5OTYwOSwieSI6NDd9LHsieCI6NTc5LjU3MzcxNTIwOTk2MDksInkiOjQ3fV0=" marker-end="url(#container_flowchart-v2-pointEnd)"></path><path d="M753.589,47L766.615,47C779.641,47,805.694,47,831.098,50.044C856.503,53.088,881.26,59.175,893.639,62.219L906.018,65.263" id="L_C_M_0" class="edge-thickness-normal edge-pattern-solid edge-thickness-normal edge-pattern-solid flowchart-link" style=";" data-edge="true" data-et="edge" data-id="L_C_M_0" data-points="W3sieCI6NzUzLjU4OTM0MDIwOTk2MDksInkiOjQ3fSx7IngiOjgzMS43NDU1OTAyMDk5NjA5LCJ5Ijo0N30seyJ4Ijo5MDkuOTAxODQwMjA5OTYwOSwieSI6NjYuMjE3ODM0MTY3MjYyMzR9XQ==" marker-end="url(#container_flowchart-v2-pointEnd)"></path><path d="M909.902,113.782L896.876,116.985C883.85,120.188,857.798,126.594,817.244,129.797C776.691,133,721.636,133,668.701,133C615.766,133,564.951,133,529.283,130.343C493.614,127.686,473.093,122.372,462.832,119.715L452.571,117.058" id="L_M_V_0" class="edge-thickness-normal edge-pattern-solid edge-thickness-normal edge-pattern-solid flowchart-link" style=";" data-edge="true" data-et="edge" data-id="L_M_V_0" data-points="W3sieCI6OTA5LjkwMTg0MDIwOTk2MDksInkiOjExMy43ODIxNjU4MzI3Mzc2Nn0seyJ4Ijo4MzEuNzQ1NTkwMjA5OTYwOSwieSI6MTMzfSx7IngiOjY2Ni41ODE1Mjc3MDk5NjA5LCJ5IjoxMzN9LHsieCI6NTE0LjEzNjIxNTIwOTk2MDksInkiOjEzM30seyJ4Ijo0NDguNjk4NzE1MjA5OTYwOTQsInkiOjExNi4wNTU3MDE5MTk0NTgwM31d" marker-end="url(#container_flowchart-v2-pointEnd)"></path></g><g class="edgeLabels"><g class="edgeLabel" transform="translate(185.46434020996094, 90)"><g class="label" data-id="L_U_V_0" transform="translate(-36.984375, -12)"><foreignObject width="73.96875" height="24"><div xmlns="http://www.w3.org/1999/xhtml" class="labelBkg" style="display: table-cell; white-space: nowrap; line-height: 1.5; max-width: 200px; text-align: center;"><span class="edgeLabel"><p>clic, saisie</p></span></div></foreignObject></g></g><g class="edgeLabel" transform="translate(514.1362152099609, 47)"><g class="label" data-id="L_V_C_0" transform="translate(-40.4375, -12)"><foreignObject width="80.875" height="24"><div xmlns="http://www.w3.org/1999/xhtml" class="labelBkg" style="display: table-cell; white-space: nowrap; line-height: 1.5; max-width: 200px; text-align: center;"><span class="edgeLabel"><p>événement</p></span></div></foreignObject></g></g><g class="edgeLabel" transform="translate(831.7455902099609, 47)"><g class="label" data-id="L_C_M_0" transform="translate(-53.15625, -12)"><foreignObject width="106.3125" height="24"><div xmlns="http://www.w3.org/1999/xhtml" class="labelBkg" style="display: table-cell; white-space: nowrap; line-height: 1.5; max-width: 200px; text-align: center;"><span class="edgeLabel"><p>appelle métier</p></span></div></foreignObject></g></g><g class="edgeLabel" transform="translate(666.5815277099609, 133)"><g class="label" data-id="L_M_V_0" transform="translate(-83.6328125, -12)"><foreignObject width="167.265625" height="24"><div xmlns="http://www.w3.org/1999/xhtml" class="labelBkg" style="display: table-cell; white-space: nowrap; line-height: 1.5; max-width: 200px; text-align: center;"><span class="edgeLabel"><p>propriétés observables</p></span></div></foreignObject></g></g></g><g class="nodes"><g class="node default" id="flowchart-U-0" transform="translate(65.73998260498047, 90)"><g class="basic label-container outer-path"><path d="M-38.25 -19.5 C-9.799292720555705 -19.5, 18.65141455888859 -19.5, 38.25 -19.5 C38.25 -19.5, 38.25 -19.5, 38.25 -19.5 C38.500378027649056 -19.491970863984562, 38.75075605529811 -19.48394172796912, 39.4993692896239 -19.45993515863156 C39.85111978374431 -19.426002211505626, 40.20287027786472 -19.392069264379693, 40.743604652847864 -19.3399052695533 C41.01227784651135 -19.296468271193522, 41.280951040174834 -19.253031272833745, 41.97759325967676 -19.140403561325776 C42.23394937896436 -19.0818919499784, 42.49030549825196 -19.023380338631018, 43.19626438623539 -18.862249829261074 C43.45276573433527 -18.786121575548083, 43.70926708243515 -18.70999332183509, 44.394610251460605 -18.50658706670804 C44.767435089772654 -18.36938407985418, 45.1402599280847 -18.232181093000317, 45.5677065951478 -18.074876768247425 C45.95273599094993 -17.90443567621704, 46.33776538675206 -17.733994584186657, 46.71073291279238 -17.568892924097174 C47.07859176150541 -17.376981198348428, 47.446450610218434 -17.18506947259968, 47.81899226407678 -16.990714730406097 C48.181245526847945 -16.771114673677747, 48.543498789619115 -16.551514616949397, 48.8879305736057 -16.342718045390892 C49.195214747475674 -16.128369907816694, 49.50249892134565 -15.914021770242492, 49.91315534457871 -15.627565626425154 C50.17926794338222 -15.415347910433017, 50.445380542185724 -15.203130194440881, 50.890453708501866 -14.848196188198123 C51.104251665335816 -14.65403054058549, 51.31804962216976 -14.459864892972856, 51.81580973676799 -14.007812326905688 C52.12291894289848 -13.690696857441214, 52.43002814902896 -13.37358138797674, 52.68542094296865 -13.10986736009568 C52.95028048236575 -12.798748274185119, 53.21514002176284 -12.487629188274557, 53.49571390812658 -12.158051136245305 C53.749698979749695 -11.817734278786366, 54.0036840513728 -11.477417421327427, 54.243358964640635 -11.156274872382312 C54.43441515653206 -10.862761255866069, 54.625471348423495 -10.569247639349825, 54.92528387860425 -10.108655082055241 C55.10696215677294 -9.786066902246176, 55.28864043494163 -9.463478722437113, 55.538686474273504 -9.019496659696287 C55.71202378815809 -8.65955801859056, 55.88536110204268 -8.299619377484836, 56.08104614880834 -7.893275190886684 C56.23799497417965 -7.505608557820436, 56.394943799550965 -7.117941924754186, 56.550134229970325 -6.734618561215508 C56.65293877447962 -6.424987652833265, 56.75574331898892 -6.11535674445102, 56.94402313421488 -5.548287939305138 C57.03313485819879 -5.208466314489007, 57.122246582182704 -4.868644689672876, 57.26109428754556 -4.339158212148133 C57.32953819613362 -3.98771320717365, 57.39798210472168 -3.6362682021991666, 57.500044776581774 -3.1121979531509023 C57.543313168568936 -2.7766168492089296, 57.58658156055609 -2.4410357452669573, 57.65989270250937 -1.872449005199798 C57.684397461504176 -1.4907676039702236, 57.708902220498985 -1.109086202740649, 57.73998121591342 -0.6250057626472757 C57.73998121591342 -0.2623550616104172, 57.73998121591342 0.10029563942644126, 57.73998121591342 0.625005762647271 C57.713946045647816 1.0305245547451485, 57.68791087538222 1.436043346843026, 57.65989270250937 1.8724490051997846 C57.60149894662669 2.325339444674449, 57.543105190744015 2.7782298841491135, 57.500044776581774 3.1121979531508885 C57.425468943703706 3.495129093371922, 57.35089311082564 3.878060233592956, 57.26109428754556 4.339158212148129 C57.166455783530616 4.700055844544228, 57.07181727951566 5.060953476940329, 56.94402313421489 5.548287939305125 C56.81247995249456 5.944475044086962, 56.68093677077424 6.340662148868798, 56.550134229970325 6.734618561215495 C56.436989680380044 7.0140877862045405, 56.32384513078976 7.293557011193587, 56.08104614880834 7.893275190886679 C55.93810123865943 8.190103355342014, 55.79515632851051 8.486931519797348, 55.538686474273504 9.019496659696284 C55.38294470122234 9.296031948313235, 55.22720292817119 9.572567236930189, 54.92528387860425 10.108655082055236 C54.692296942298576 10.466585581973177, 54.459310005992904 10.824516081891119, 54.24335896464064 11.156274872382301 C54.001868374822855 11.479850262492812, 53.760377785005076 11.803425652603323, 53.49571390812658 12.158051136245302 C53.31764054133894 12.367226245535687, 53.139567174551296 12.57640135482607, 52.68542094296866 13.10986736009567 C52.4015672213282 13.402969632513406, 52.11771349968773 13.696071904931143, 51.81580973676799 14.007812326905684 C51.57003694509413 14.23101667351216, 51.324264153420266 14.454221020118636, 50.89045370850189 14.848196188198111 C50.64802502365268 15.041526613067111, 50.40559633880348 15.23485703793611, 49.91315534457871 15.627565626425152 C49.551499799487935 15.879840878864261, 49.18984425439715 16.13211613130337, 48.88793057360571 16.34271804539089 C48.639552200839034 16.49328647459538, 48.39117382807237 16.64385490379987, 47.81899226407678 16.990714730406093 C47.526176670068814 17.14347643824271, 47.23336107606085 17.29623814607933, 46.71073291279239 17.56889292409717 C46.36899695948028 17.720169293391564, 46.02726100616817 17.871445662685957, 45.567706595147804 18.07487676824742 C45.226933170229195 18.200284538692475, 44.886159745310586 18.325692309137533, 44.39461025146062 18.506587066708033 C43.928074399142965 18.64505245877925, 43.46153854682531 18.783517850850473, 43.19626438623541 18.86224982926107 C42.881565401158326 18.934077819002116, 42.56686641608125 19.005905808743165, 41.977593259676766 19.140403561325773 C41.499695316233854 19.21766639466772, 41.02179737279095 19.294929228009668, 40.74360465284788 19.3399052695533 C40.39503481434608 19.373531382657003, 40.04646497584429 19.407157495760707, 39.4993692896239 19.45993515863156 C39.0052351091753 19.47578108002471, 38.5111009287267 19.49162700141786, 38.25000000000001 19.5 C38.25000000000001 19.5, 38.25000000000001 19.5, 38.25 19.5 C22.03255447264538 19.5, 5.81510894529076 19.5, -38.24999999999999 19.5 C-38.523276004026734 19.491236570450337, -38.79655200805348 19.482473140900673, -39.49936928962389 19.45993515863156 C-39.871507947440946 19.424035389874163, -40.243646605258 19.38813562111677, -40.74360465284787 19.3399052695533 C-41.1803016254741 19.269303489654693, -41.61699859810033 19.198701709756083, -41.97759325967676 19.140403561325773 C-42.42568904259388 19.038128622973193, -42.87378482551101 18.935853684620614, -43.196264386235384 18.862249829261074 C-43.594587406010724 18.74402964783195, -43.99291042578607 18.625809466402828, -44.39461025146059 18.506587066708043 C-44.67589388879678 18.403072088010887, -44.957177526132966 18.299557109313728, -45.5677065951478 18.074876768247425 C-45.91619140279508 17.920612881336503, -46.26467621044237 17.766348994425577, -46.71073291279238 17.568892924097174 C-47.092477306902246 17.369737118209013, -47.47422170101211 17.17058131232085, -47.81899226407678 16.990714730406097 C-48.176193023489255 16.77417753090559, -48.53339378290173 16.557640331405086, -48.887930573605686 16.3427180453909 C-49.21184654875242 16.116768283225106, -49.53576252389915 15.890818521059316, -49.91315534457871 15.627565626425156 C-50.175669801822416 15.418217332576392, -50.43818425906613 15.208869038727627, -50.890453708501866 14.848196188198125 C-51.15886667450345 14.604430634293397, -51.42727964050504 14.360665080388669, -51.815809736767974 14.007812326905697 C-52.14427039965257 13.66864972535541, -52.47273106253717 13.329487123805121, -52.685420942968655 13.109867360095677 C-52.86947643309834 12.893665308335272, -53.05353192322802 12.677463256574868, -53.495713908126575 12.158051136245307 C-53.696189668979166 11.88943188042037, -53.89666542983176 11.620812624595432, -54.243358964640635 11.156274872382316 C-54.47972035725958 10.79316030139879, -54.716081749878526 10.430045730415268, -54.92528387860425 10.108655082055249 C-55.161685351142886 9.68890032931803, -55.398086823681524 9.269145576580812, -55.538686474273504 9.019496659696289 C-55.70620996081401 8.671630555466528, -55.87373344735452 8.323764451236768, -56.08104614880834 7.893275190886686 C-56.24061180431171 7.499144936801281, -56.40017745981508 7.105014682715877, -56.550134229970325 6.73461856121551 C-56.631453818137615 6.489696918172476, -56.712773406304905 6.244775275129443, -56.94402313421488 5.5482879393051325 C-57.02380334659224 5.244051412547504, -57.103583558969596 4.939814885789876, -57.26109428754556 4.339158212148136 C-57.31404483855351 4.067268323825258, -57.366995389561446 3.7953784355023794, -57.500044776581774 3.112197953150904 C-57.54691654662644 2.7486697605623696, -57.59378831667111 2.385141567973835, -57.65989270250937 1.872449005199809 C-57.68213350342129 1.5260305785451864, -57.70437430433322 1.1796121518905638, -57.73998121591342 0.6250057626472781 C-57.73998121591342 0.284472202082005, -57.73998121591342 -0.0560613584832681, -57.73998121591342 -0.6250057626472687 C-57.7161808565055 -0.99571557172986, -57.69238049709759 -1.3664253808124514, -57.65989270250937 -1.8724490051997822 C-57.62703623620027 -2.127277269650003, -57.59417976989117 -2.3821055341002237, -57.500044776581774 -3.112197953150895 C-57.442810843227115 -3.4060821045309706, -57.385576909872455 -3.699966255911046, -57.26109428754556 -4.339158212148126 C-57.1908154485735 -4.607161884190082, -57.12053660960144 -4.875165556232036, -56.94402313421489 -5.548287939305123 C-56.83486550381468 -5.877053330163995, -56.725707873414486 -6.205818721022866, -56.55013422997033 -6.734618561215485 C-56.364801462109455 -7.192394080997151, -56.179468694248584 -7.650169600778818, -56.08104614880834 -7.893275190886676 C-55.945783238772165 -8.174151517739428, -55.810520328736 -8.45502784459218, -55.538686474273504 -9.019496659696282 C-55.385707588155235 -9.29112616279125, -55.23272870203697 -9.562755665886217, -54.92528387860425 -10.108655082055243 C-54.66622529396493 -10.506638635031509, -54.40716670932561 -10.904622188007774, -54.24335896464064 -11.156274872382308 C-54.002791491190095 -11.478613370658357, -53.76222401773954 -11.800951868934405, -53.49571390812659 -12.158051136245302 C-53.23108624025346 -12.468897852669947, -52.96645857238033 -12.779744569094593, -52.68542094296866 -13.10986736009567 C-52.412965949363254 -13.391199509964235, -52.14051095575785 -13.6725316598328, -51.815809736767996 -14.007812326905677 C-51.61665873447639 -14.188675997940143, -51.417507732184774 -14.369539668974609, -50.89045370850189 -14.848196188198107 C-50.53542999832375 -15.13131814948747, -50.18040628814562 -15.414440110776832, -49.91315534457872 -15.627565626425149 C-49.70512827988778 -15.772676301407058, -49.49710121519684 -15.91778697638897, -48.887930573605715 -16.342718045390885 C-48.559597472093024 -16.54175550102735, -48.23126437058034 -16.740792956663817, -47.81899226407679 -16.99071473040609 C-47.38634907007412 -17.21642440759609, -46.95370587607145 -17.442134084786094, -46.71073291279239 -17.56889292409717 C-46.460144946994426 -17.679820783128033, -46.20955698119646 -17.7907486421589, -45.567706595147804 -18.07487676824742 C-45.11334973312937 -18.242084293498998, -44.658992871110925 -18.409291818750575, -44.39461025146062 -18.506587066708033 C-44.04894546430343 -18.609178561104795, -43.70328067714624 -18.711770055501553, -43.19626438623541 -18.862249829261067 C-42.80174947555308 -18.952295283173925, -42.40723456487075 -19.04234073708678, -41.977593259676766 -19.140403561325773 C-41.58154559524487 -19.204433476315614, -41.18549793081297 -19.268463391305453, -40.74360465284788 -19.3399052695533 C-40.29913198357687 -19.38278301340128, -39.85465931430586 -19.42566075724926, -39.4993692896239 -19.45993515863156 C-39.10421414472142 -19.472607015005753, -38.709058999818936 -19.485278871379943, -38.25000000000001 -19.5 C-38.25000000000001 -19.5, -38.25000000000001 -19.5, -38.25 -19.5" stroke="none" stroke-width="0" fill="#7f8c8d" style="fill:#7f8c8d !important"></path><path d="M-38.25 -19.5 C-14.38955264264158 -19.5, 9.470894714716842 -19.5, 38.25 -19.5 M-38.25 -19.5 C-16.46006480194297 -19.5, 5.32987039611406 -19.5, 38.25 -19.5 M38.25 -19.5 C38.25 -19.5, 38.25 -19.5, 38.25 -19.5 M38.25 -19.5 C38.25 -19.5, 38.25 -19.5, 38.25 -19.5 M38.25 -19.5 C38.628276647518796 -19.4878694041849, 39.0065532950376 -19.4757388083698, 39.4993692896239 -19.45993515863156 M38.25 -19.5 C38.51920717528012 -19.491367049868746, 38.788414350560245 -19.482734099737492, 39.4993692896239 -19.45993515863156 M39.4993692896239 -19.45993515863156 C39.871012634238944 -19.42408317214306, 40.24265597885399 -19.38823118565456, 40.743604652847864 -19.3399052695533 M39.4993692896239 -19.45993515863156 C39.864693743240345 -19.42469274795812, 40.2300181968568 -19.389450337284675, 40.743604652847864 -19.3399052695533 M40.743604652847864 -19.3399052695533 C41.09853262825576 -19.282523266996908, 41.45346060366366 -19.22514126444052, 41.97759325967676 -19.140403561325776 M40.743604652847864 -19.3399052695533 C41.159165070958814 -19.272720683872297, 41.574725489069756 -19.205536098191292, 41.97759325967676 -19.140403561325776 M41.97759325967676 -19.140403561325776 C42.40133547260008 -19.043687166402385, 42.825077685523404 -18.946970771478995, 43.19626438623539 -18.862249829261074 M41.97759325967676 -19.140403561325776 C42.434062831819276 -19.036217360226583, 42.89053240396179 -18.932031159127387, 43.19626438623539 -18.862249829261074 M43.19626438623539 -18.862249829261074 C43.61344267935252 -18.73843350167746, 44.03062097246965 -18.61461717409384, 44.394610251460605 -18.50658706670804 M43.19626438623539 -18.862249829261074 C43.54757795468138 -18.75798180622886, 43.89889152312737 -18.65371378319664, 44.394610251460605 -18.50658706670804 M44.394610251460605 -18.50658706670804 C44.78748592219067 -18.362005188176486, 45.18036159292074 -18.217423309644932, 45.5677065951478 -18.074876768247425 M44.394610251460605 -18.50658706670804 C44.64926120552084 -18.41287316164626, 44.90391215958107 -18.319159256584477, 45.5677065951478 -18.074876768247425 M45.5677065951478 -18.074876768247425 C45.836593712234 -17.955848417766294, 46.1054808293202 -17.836820067285164, 46.71073291279238 -17.568892924097174 M45.5677065951478 -18.074876768247425 C45.839796268505104 -17.954430741105533, 46.11188594186242 -17.833984713963638, 46.71073291279238 -17.568892924097174 M46.71073291279238 -17.568892924097174 C47.034130745781816 -17.40017648177278, 47.35752857877126 -17.231460039448393, 47.81899226407678 -16.990714730406097 M46.71073291279238 -17.568892924097174 C47.03590930432856 -17.399248608918167, 47.361085695864745 -17.22960429373916, 47.81899226407678 -16.990714730406097 M47.81899226407678 -16.990714730406097 C48.12240091940479 -16.806786620519087, 48.425809574732796 -16.622858510632078, 48.8879305736057 -16.342718045390892 M47.81899226407678 -16.990714730406097 C48.111484543994116 -16.813404191444782, 48.40397682391144 -16.636093652483467, 48.8879305736057 -16.342718045390892 M48.8879305736057 -16.342718045390892 C49.17257269613749 -16.144164022671603, 49.457214818669286 -15.945609999952316, 49.91315534457871 -15.627565626425154 M48.8879305736057 -16.342718045390892 C49.29600367325589 -16.05806391627469, 49.70407677290608 -15.773409787158492, 49.91315534457871 -15.627565626425154 M49.91315534457871 -15.627565626425154 C50.21718516349787 -15.385109936410391, 50.52121498241702 -15.142654246395628, 50.890453708501866 -14.848196188198123 M49.91315534457871 -15.627565626425154 C50.25941339610194 -15.351434044649107, 50.60567144762516 -15.07530246287306, 50.890453708501866 -14.848196188198123 M50.890453708501866 -14.848196188198123 C51.17005853626161 -14.594266481565077, 51.44966336402135 -14.34033677493203, 51.81580973676799 -14.007812326905688 M50.890453708501866 -14.848196188198123 C51.18665965641424 -14.579189783484024, 51.48286560432662 -14.310183378769926, 51.81580973676799 -14.007812326905688 M51.81580973676799 -14.007812326905688 C52.02186931819749 -13.795038891273467, 52.22792889962698 -13.582265455641247, 52.68542094296865 -13.10986736009568 M51.81580973676799 -14.007812326905688 C52.041097731903946 -13.775183975439422, 52.2663857270399 -13.542555623973156, 52.68542094296865 -13.10986736009568 M52.68542094296865 -13.10986736009568 C52.881718120856675 -12.879285525322558, 53.07801529874471 -12.648703690549434, 53.49571390812658 -12.158051136245305 M52.68542094296865 -13.10986736009568 C52.923999461561515 -12.829619456654212, 53.16257798015439 -12.549371553212742, 53.49571390812658 -12.158051136245305 M53.49571390812658 -12.158051136245305 C53.76862937797925 -11.792369269753511, 54.04154484783192 -11.426687403261715, 54.243358964640635 -11.156274872382312 M53.49571390812658 -12.158051136245305 C53.77485099809003 -11.78403286560632, 54.05398808805348 -11.410014594967338, 54.243358964640635 -11.156274872382312 M54.243358964640635 -11.156274872382312 C54.40862026139624 -10.902389141693904, 54.57388155815183 -10.648503411005496, 54.92528387860425 -10.108655082055241 M54.243358964640635 -11.156274872382312 C54.460756199136256 -10.822294340865698, 54.67815343363188 -10.488313809349084, 54.92528387860425 -10.108655082055241 M54.92528387860425 -10.108655082055241 C55.16876968036733 -9.676321385413893, 55.41225548213042 -9.243987688772544, 55.538686474273504 -9.019496659696287 M54.92528387860425 -10.108655082055241 C55.10831862136984 -9.783658361997439, 55.29135336413543 -9.458661641939637, 55.538686474273504 -9.019496659696287 M55.538686474273504 -9.019496659696287 C55.69534494711973 -8.69419198887675, 55.85200341996596 -8.36888731805721, 56.08104614880834 -7.893275190886684 M55.538686474273504 -9.019496659696287 C55.73651061517244 -8.608710598361101, 55.93433475607138 -8.197924537025918, 56.08104614880834 -7.893275190886684 M56.08104614880834 -7.893275190886684 C56.20114189521769 -7.5966363753623, 56.321237641627036 -7.299997559837914, 56.550134229970325 -6.734618561215508 M56.08104614880834 -7.893275190886684 C56.25794009990497 -7.456343711666129, 56.4348340510016 -7.019412232445573, 56.550134229970325 -6.734618561215508 M56.550134229970325 -6.734618561215508 C56.64290233829483 -6.455215799532906, 56.735670446619345 -6.175813037850303, 56.94402313421488 -5.548287939305138 M56.550134229970325 -6.734618561215508 C56.641279359095634 -6.460103954294269, 56.73242448822095 -6.185589347373028, 56.94402313421488 -5.548287939305138 M56.94402313421488 -5.548287939305138 C57.04854193554763 -5.149712451088309, 57.153060736880384 -4.751136962871479, 57.26109428754556 -4.339158212148133 M56.94402313421488 -5.548287939305138 C57.031517318600024 -5.214634694025203, 57.11901150298517 -4.880981448745269, 57.26109428754556 -4.339158212148133 M57.26109428754556 -4.339158212148133 C57.3204077266985 -4.0345962379975955, 57.379721165851436 -3.7300342638470587, 57.500044776581774 -3.1121979531509023 M57.26109428754556 -4.339158212148133 C57.353950970092725 -3.8623587725352517, 57.44680765263988 -3.3855593329223708, 57.500044776581774 -3.1121979531509023 M57.500044776581774 -3.1121979531509023 C57.56227022626483 -2.629589653214033, 57.624495675947884 -2.146981353277163, 57.65989270250937 -1.872449005199798 M57.500044776581774 -3.1121979531509023 C57.54161353000976 -2.789798910242256, 57.58318228343775 -2.4673998673336093, 57.65989270250937 -1.872449005199798 M57.65989270250937 -1.872449005199798 C57.685837682141205 -1.4683350050233221, 57.71178266177304 -1.0642210048468463, 57.73998121591342 -0.6250057626472757 M57.65989270250937 -1.872449005199798 C57.68844426146165 -1.427735428114471, 57.71699582041393 -0.983021851029144, 57.73998121591342 -0.6250057626472757 M57.73998121591342 -0.6250057626472757 C57.73998121591342 -0.29802414783925774, 57.73998121591342 0.028957466968760226, 57.73998121591342 0.625005762647271 M57.73998121591342 -0.6250057626472757 C57.73998121591342 -0.23466318276266274, 57.73998121591342 0.15567939712195022, 57.73998121591342 0.625005762647271 M57.73998121591342 0.625005762647271 C57.71899948008132 0.9518132343844935, 57.69801774424923 1.2786207061217159, 57.65989270250937 1.8724490051997846 M57.73998121591342 0.625005762647271 C57.71369909273173 1.0343710457500601, 57.68741696955004 1.443736328852849, 57.65989270250937 1.8724490051997846 M57.65989270250937 1.8724490051997846 C57.61357256156355 2.231698871429128, 57.56725242061773 2.590948737658472, 57.500044776581774 3.1121979531508885 M57.65989270250937 1.8724490051997846 C57.60477817238975 2.2999064172125534, 57.549663642270126 2.7273638292253217, 57.500044776581774 3.1121979531508885 M57.500044776581774 3.1121979531508885 C57.434309438043975 3.449735023373756, 57.36857409950618 3.7872720935966226, 57.26109428754556 4.339158212148129 M57.500044776581774 3.1121979531508885 C57.43376622241794 3.4525243208048257, 57.36748766825409 3.792850688458763, 57.26109428754556 4.339158212148129 M57.26109428754556 4.339158212148129 C57.14182597151525 4.793979992386859, 57.02255765548494 5.248801772625589, 56.94402313421489 5.548287939305125 M57.26109428754556 4.339158212148129 C57.172870036358134 4.675595518558122, 57.08464578517071 5.012032824968116, 56.94402313421489 5.548287939305125 M56.94402313421489 5.548287939305125 C56.81826679593331 5.92704599365773, 56.69251045765174 6.305804048010334, 56.550134229970325 6.734618561215495 M56.94402313421489 5.548287939305125 C56.79270022163031 6.004048441977938, 56.641377309045744 6.45980894465075, 56.550134229970325 6.734618561215495 M56.550134229970325 6.734618561215495 C56.36343113352616 7.195778819091389, 56.176728037082 7.656939076967284, 56.08104614880834 7.893275190886679 M56.550134229970325 6.734618561215495 C56.406027496388525 7.090564979276701, 56.261920762806724 7.4465113973379085, 56.08104614880834 7.893275190886679 M56.08104614880834 7.893275190886679 C55.92032860021726 8.227008619340715, 55.75961105162618 8.560742047794752, 55.538686474273504 9.019496659696284 M56.08104614880834 7.893275190886679 C55.91583219347885 8.23634550414071, 55.750618238149364 8.579415817394741, 55.538686474273504 9.019496659696284 M55.538686474273504 9.019496659696284 C55.34473008387422 9.363885871064458, 55.150773693474925 9.708275082432632, 54.92528387860425 10.108655082055236 M55.538686474273504 9.019496659696284 C55.30806488924716 9.428988636878348, 55.077443304220814 9.838480614060412, 54.92528387860425 10.108655082055236 M54.92528387860425 10.108655082055236 C54.77065989086874 10.34619904957136, 54.61603590313323 10.583743017087485, 54.24335896464064 11.156274872382301 M54.92528387860425 10.108655082055236 C54.72667723324441 10.413768222679598, 54.52807058788458 10.718881363303959, 54.24335896464064 11.156274872382301 M54.24335896464064 11.156274872382301 C54.03969899578034 11.429160676850255, 53.83603902692004 11.70204648131821, 53.49571390812658 12.158051136245302 M54.24335896464064 11.156274872382301 C54.02564612442235 11.447990244227045, 53.807933284204054 11.73970561607179, 53.49571390812658 12.158051136245302 M53.49571390812658 12.158051136245302 C53.20268027797163 12.50226511231122, 52.90964664781668 12.846479088377139, 52.68542094296866 13.10986736009567 M53.49571390812658 12.158051136245302 C53.24666420745263 12.450599085986351, 52.99761450677868 12.743147035727398, 52.68542094296866 13.10986736009567 M52.68542094296866 13.10986736009567 C52.35270018276703 13.453428861886293, 52.0199794225654 13.796990363676914, 51.81580973676799 14.007812326905684 M52.68542094296866 13.10986736009567 C52.389815136937955 13.415104624510407, 52.09420933090724 13.720341888925143, 51.81580973676799 14.007812326905684 M51.81580973676799 14.007812326905684 C51.562021417274956 14.238296163798285, 51.30823309778192 14.468780000690888, 50.89045370850189 14.848196188198111 M51.81580973676799 14.007812326905684 C51.58563717638143 14.216848956216529, 51.35546461599488 14.425885585527372, 50.89045370850189 14.848196188198111 M50.89045370850189 14.848196188198111 C50.68827586431012 15.009427638762658, 50.486098020118355 15.170659089327204, 49.91315534457871 15.627565626425152 M50.89045370850189 14.848196188198111 C50.64782582858749 15.041685465830797, 50.4051979486731 15.235174743463482, 49.91315534457871 15.627565626425152 M49.91315534457871 15.627565626425152 C49.56691392194951 15.869088654301674, 49.2206724993203 16.110611682178195, 48.88793057360571 16.34271804539089 M49.91315534457871 15.627565626425152 C49.679907286361946 15.790269374691466, 49.44665922814518 15.95297312295778, 48.88793057360571 16.34271804539089 M48.88793057360571 16.34271804539089 C48.64920304916003 16.487436073628515, 48.41047552471434 16.632154101866142, 47.81899226407678 16.990714730406093 M48.88793057360571 16.34271804539089 C48.54695343112236 16.5494203929684, 48.205976288639015 16.756122740545916, 47.81899226407678 16.990714730406093 M47.81899226407678 16.990714730406093 C47.39062656473863 17.21419284136948, 46.96226086540048 17.43767095233287, 46.71073291279239 17.56889292409717 M47.81899226407678 16.990714730406093 C47.42842453906592 17.194473662373696, 47.037856814055054 17.398232594341295, 46.71073291279239 17.56889292409717 M46.71073291279239 17.56889292409717 C46.3817232916567 17.714535723650293, 46.05271367052101 17.860178523203416, 45.567706595147804 18.07487676824742 M46.71073291279239 17.56889292409717 C46.29889209798053 17.751202635990673, 45.887051283168674 17.933512347884175, 45.567706595147804 18.07487676824742 M45.567706595147804 18.07487676824742 C45.1554037036423 18.226608043607595, 44.7431008121368 18.378339318967768, 44.39461025146062 18.506587066708033 M45.567706595147804 18.07487676824742 C45.15284496396039 18.22754968346327, 44.73798333277297 18.38022259867912, 44.39461025146062 18.506587066708033 M44.39461025146062 18.506587066708033 C43.931547032453736 18.64402179944084, 43.468483813446845 18.78145653217365, 43.19626438623541 18.86224982926107 M44.39461025146062 18.506587066708033 C43.91648901349158 18.648490940427653, 43.438367775522536 18.790394814147277, 43.19626438623541 18.86224982926107 M43.19626438623541 18.86224982926107 C42.82770293954196 18.946371574380645, 42.459141492848495 19.03049331950022, 41.977593259676766 19.140403561325773 M43.19626438623541 18.86224982926107 C42.79261901973128 18.954379250133456, 42.388973653227154 19.046508671005846, 41.977593259676766 19.140403561325773 M41.977593259676766 19.140403561325773 C41.63326264413304 19.196072264923078, 41.288932028589315 19.251740968520384, 40.74360465284788 19.3399052695533 M41.977593259676766 19.140403561325773 C41.69925555420733 19.18540304300493, 41.4209178487379 19.23040252468408, 40.74360465284788 19.3399052695533 M40.74360465284788 19.3399052695533 C40.434352362448415 19.36973846607784, 40.125100072048944 19.399571662602384, 39.4993692896239 19.45993515863156 M40.74360465284788 19.3399052695533 C40.259894764992175 19.386568180688485, 39.77618487713647 19.43323109182367, 39.4993692896239 19.45993515863156 M39.4993692896239 19.45993515863156 C39.170607270287846 19.470477916695216, 38.841845250951785 19.481020674758874, 38.25000000000001 19.5 M39.4993692896239 19.45993515863156 C39.13605337450847 19.47158599287778, 38.772737459393035 19.483236827124006, 38.25000000000001 19.5 M38.25000000000001 19.5 C38.25000000000001 19.5, 38.25 19.5, 38.25 19.5 M38.25000000000001 19.5 C38.25000000000001 19.5, 38.25 19.5, 38.25 19.5 M38.25 19.5 C19.539239040136604 19.5, 0.8284780802732072 19.5, -38.24999999999999 19.5 M38.25 19.5 C13.473502014965142 19.5, -11.302995970069716 19.5, -38.24999999999999 19.5 M-38.24999999999999 19.5 C-38.582581035499814 19.489334773521236, -38.91516207099964 19.478669547042472, -39.49936928962389 19.45993515863156 M-38.24999999999999 19.5 C-38.74367382505006 19.484168841308453, -39.23734765010012 19.468337682616905, -39.49936928962389 19.45993515863156 M-39.49936928962389 19.45993515863156 C-39.91614402784522 19.419729400880303, -40.33291876606655 19.37952364312905, -40.74360465284787 19.3399052695533 M-39.49936928962389 19.45993515863156 C-39.92290039251876 19.419077622505966, -40.34643149541364 19.37822008638037, -40.74360465284787 19.3399052695533 M-40.74360465284787 19.3399052695533 C-41.211085577955586 19.2643265789506, -41.678566503063294 19.188747888347905, -41.97759325967676 19.140403561325773 M-40.74360465284787 19.3399052695533 C-41.14750400724889 19.274605954220014, -41.55140336164991 19.209306638886734, -41.97759325967676 19.140403561325773 M-41.97759325967676 19.140403561325773 C-42.4240795949502 19.038495968895237, -42.87056593022364 18.9365883764647, -43.196264386235384 18.862249829261074 M-41.97759325967676 19.140403561325773 C-42.3650971554553 19.051958325813562, -42.75260105123384 18.963513090301348, -43.196264386235384 18.862249829261074 M-43.196264386235384 18.862249829261074 C-43.447480333597305 18.787690254743474, -43.69869628095922 18.713130680225873, -44.39461025146059 18.506587066708043 M-43.196264386235384 18.862249829261074 C-43.64522462723105 18.72900078637396, -44.09418486822671 18.59575174348684, -44.39461025146059 18.506587066708043 M-44.39461025146059 18.506587066708043 C-44.775796486038246 18.36630700873654, -45.15698272061589 18.22602695076504, -45.5677065951478 18.074876768247425 M-44.39461025146059 18.506587066708043 C-44.84276041431666 18.34166366412232, -45.290910577172724 18.176740261536594, -45.5677065951478 18.074876768247425 M-45.5677065951478 18.074876768247425 C-45.95838961505238 17.901932984535684, -46.34907263495697 17.728989200823946, -46.71073291279238 17.568892924097174 M-45.5677065951478 18.074876768247425 C-45.9230826442176 17.917562333180165, -46.27845869328741 17.760247898112905, -46.71073291279238 17.568892924097174 M-46.71073291279238 17.568892924097174 C-46.97812650232538 17.429393859711578, -47.245520091858374 17.28989479532598, -47.81899226407678 16.990714730406097 M-46.71073291279238 17.568892924097174 C-47.03061163369548 17.402012400294126, -47.35049035459858 17.23513187649108, -47.81899226407678 16.990714730406097 M-47.81899226407678 16.990714730406097 C-48.20750494302925 16.75519606127118, -48.59601762198172 16.519677392136266, -48.887930573605686 16.3427180453909 M-47.81899226407678 16.990714730406097 C-48.21339080516661 16.75162801705435, -48.60778934625643 16.512541303702605, -48.887930573605686 16.3427180453909 M-48.887930573605686 16.3427180453909 C-49.260054442543044 16.083140543402855, -49.6321783114804 15.82356304141481, -49.91315534457871 15.627565626425156 M-48.887930573605686 16.3427180453909 C-49.23998289627711 16.097141585194738, -49.59203521894854 15.851565124998574, -49.91315534457871 15.627565626425156 M-49.91315534457871 15.627565626425156 C-50.14573453009483 15.442089915168108, -50.37831371561095 15.256614203911058, -50.890453708501866 14.848196188198125 M-49.91315534457871 15.627565626425156 C-50.29485864814121 15.323167399385564, -50.6765619517037 15.018769172345973, -50.890453708501866 14.848196188198125 M-50.890453708501866 14.848196188198125 C-51.127325393645094 14.6330755910324, -51.36419707878832 14.417954993866674, -51.815809736767974 14.007812326905697 M-50.890453708501866 14.848196188198125 C-51.24934759017143 14.522258260677582, -51.608241471841 14.196320333157038, -51.815809736767974 14.007812326905697 M-51.815809736767974 14.007812326905697 C-52.003846988576974 13.813648426267422, -52.191884240385974 13.619484525629147, -52.685420942968655 13.109867360095677 M-51.815809736767974 14.007812326905697 C-52.13357263043096 13.67969605037991, -52.45133552409394 13.351579773854125, -52.685420942968655 13.109867360095677 M-52.685420942968655 13.109867360095677 C-52.979213520892394 12.764761880795188, -53.27300609881613 12.419656401494697, -53.495713908126575 12.158051136245307 M-52.685420942968655 13.109867360095677 C-52.98248622756281 12.76091757331783, -53.27955151215697 12.411967786539982, -53.495713908126575 12.158051136245307 M-53.495713908126575 12.158051136245307 C-53.7722646869503 11.787498286915765, -54.04881546577403 11.416945437586223, -54.243358964640635 11.156274872382316 M-53.495713908126575 12.158051136245307 C-53.73194537768569 11.841522488165706, -53.9681768472448 11.524993840086108, -54.243358964640635 11.156274872382316 M-54.243358964640635 11.156274872382316 C-54.385498260918254 10.937910743554577, -54.527637557195874 10.719546614726838, -54.92528387860425 10.108655082055249 M-54.243358964640635 11.156274872382316 C-54.49176624652952 10.774654580705985, -54.7401735284184 10.393034289029654, -54.92528387860425 10.108655082055249 M-54.92528387860425 10.108655082055249 C-55.12410589466227 9.75562645963196, -55.322927910720296 9.402597837208674, -55.538686474273504 9.019496659696289 M-54.92528387860425 10.108655082055249 C-55.146096570848286 9.716579787266271, -55.36690926309232 9.324504492477294, -55.538686474273504 9.019496659696289 M-55.538686474273504 9.019496659696289 C-55.74010821791093 8.60124009929827, -55.94152996154835 8.18298353890025, -56.08104614880834 7.893275190886686 M-55.538686474273504 9.019496659696289 C-55.749035437658215 8.582702536481127, -55.959384401042925 8.145908413265964, -56.08104614880834 7.893275190886686 M-56.08104614880834 7.893275190886686 C-56.2118567856127 7.570170388928294, -56.34266742241707 7.247065586969902, -56.550134229970325 6.73461856121551 M-56.08104614880834 7.893275190886686 C-56.18401236418575 7.638946648188143, -56.286978579563154 7.384618105489599, -56.550134229970325 6.73461856121551 M-56.550134229970325 6.73461856121551 C-56.69528296155223 6.29745370800057, -56.840431693134136 5.86028885478563, -56.94402313421488 5.5482879393051325 M-56.550134229970325 6.73461856121551 C-56.63746980625827 6.471577720470603, -56.724805382546215 6.208536879725696, -56.94402313421488 5.5482879393051325 M-56.94402313421488 5.5482879393051325 C-57.05463428749385 5.126479672675357, -57.165245440772814 4.704671406045581, -57.26109428754556 4.339158212148136 M-56.94402313421488 5.5482879393051325 C-57.06993039306029 5.06814899277642, -57.1958376519057 4.588010046247707, -57.26109428754556 4.339158212148136 M-57.26109428754556 4.339158212148136 C-57.341995432735146 3.923747930062702, -57.42289657792473 3.5083376479772688, -57.500044776581774 3.112197953150904 M-57.26109428754556 4.339158212148136 C-57.34180096755131 3.924746467681486, -57.422507647557055 3.5103347232148354, -57.500044776581774 3.112197953150904 M-57.500044776581774 3.112197953150904 C-57.550141931697354 2.7236543108767126, -57.600239086812934 2.335110668602521, -57.65989270250937 1.872449005199809 M-57.500044776581774 3.112197953150904 C-57.56033599873825 2.644591139953697, -57.62062722089474 2.1769843267564903, -57.65989270250937 1.872449005199809 M-57.65989270250937 1.872449005199809 C-57.69134647369659 1.3825311299317025, -57.722800244883814 0.892613254663596, -57.73998121591342 0.6250057626472781 M-57.65989270250937 1.872449005199809 C-57.69019004861972 1.4005433839534194, -57.72048739473008 0.9286377627070296, -57.73998121591342 0.6250057626472781 M-57.73998121591342 0.6250057626472781 C-57.73998121591342 0.22785596500102923, -57.73998121591342 -0.1692938326452197, -57.73998121591342 -0.6250057626472687 M-57.73998121591342 0.6250057626472781 C-57.73998121591342 0.20275951880086635, -57.73998121591342 -0.21948672504554545, -57.73998121591342 -0.6250057626472687 M-57.73998121591342 -0.6250057626472687 C-57.71477870279092 -1.0175552476325769, -57.68957618966842 -1.4101047326178848, -57.65989270250937 -1.8724490051997822 M-57.73998121591342 -0.6250057626472687 C-57.72076623667485 -0.9242945743400781, -57.70155125743628 -1.2235833860328875, -57.65989270250937 -1.8724490051997822 M-57.65989270250937 -1.8724490051997822 C-57.61583650769245 -2.214140152320092, -57.57178031287553 -2.5558312994404027, -57.500044776581774 -3.112197953150895 M-57.65989270250937 -1.8724490051997822 C-57.62706546427195 -2.127050582497801, -57.59423822603453 -2.3816521597958205, -57.500044776581774 -3.112197953150895 M-57.500044776581774 -3.112197953150895 C-57.41423056016045 -3.552835817633342, -57.32841634373912 -3.9934736821157886, -57.26109428754556 -4.339158212148126 M-57.500044776581774 -3.112197953150895 C-57.41154538968819 -3.566623600497385, -57.32304600279462 -4.021049247843875, -57.26109428754556 -4.339158212148126 M-57.26109428754556 -4.339158212148126 C-57.17072643882108 -4.683769985007983, -57.08035859009659 -5.02838175786784, -56.94402313421489 -5.548287939305123 M-57.26109428754556 -4.339158212148126 C-57.160903867017865 -4.721227708423157, -57.060713446490176 -5.103297204698188, -56.94402313421489 -5.548287939305123 M-56.94402313421489 -5.548287939305123 C-56.81859393132925 -5.92606071396713, -56.693164728443605 -6.303833488629138, -56.55013422997033 -6.734618561215485 M-56.94402313421489 -5.548287939305123 C-56.86386934146817 -5.789698392285679, -56.783715548721446 -6.0311088452662345, -56.55013422997033 -6.734618561215485 M-56.55013422997033 -6.734618561215485 C-56.404787606221404 -7.09362753196114, -56.259440982472476 -7.452636502706794, -56.08104614880834 -7.893275190886676 M-56.55013422997033 -6.734618561215485 C-56.419539912528485 -7.05718905016621, -56.28894559508664 -7.379759539116935, -56.08104614880834 -7.893275190886676 M-56.08104614880834 -7.893275190886676 C-55.97051038646406 -8.122805066481003, -55.859974624119786 -8.352334942075332, -55.538686474273504 -9.019496659696282 M-56.08104614880834 -7.893275190886676 C-55.970837912590284 -8.122124951471976, -55.86062967637222 -8.350974712057276, -55.538686474273504 -9.019496659696282 M-55.538686474273504 -9.019496659696282 C-55.37233999136922 -9.314861684500771, -55.20599350846494 -9.61022670930526, -54.92528387860425 -10.108655082055243 M-55.538686474273504 -9.019496659696282 C-55.32831928113359 -9.393024913104412, -55.11795208799368 -9.766553166512544, -54.92528387860425 -10.108655082055243 M-54.92528387860425 -10.108655082055243 C-54.750004348422465 -10.377931509558614, -54.57472481824069 -10.647207937061987, -54.24335896464064 -11.156274872382308 M-54.92528387860425 -10.108655082055243 C-54.771434430615805 -10.34500914852683, -54.61758498262736 -10.581363214998417, -54.24335896464064 -11.156274872382308 M-54.24335896464064 -11.156274872382308 C-54.0700465508838 -11.388497717730765, -53.89673413712697 -11.620720563079223, -53.49571390812659 -12.158051136245302 M-54.24335896464064 -11.156274872382308 C-53.985104365971864 -11.502312507120525, -53.72684976730309 -11.848350141858742, -53.49571390812659 -12.158051136245302 M-53.49571390812659 -12.158051136245302 C-53.25058094437396 -12.445998263929917, -53.005447980621334 -12.733945391614535, -52.68542094296866 -13.10986736009567 M-53.49571390812659 -12.158051136245302 C-53.2077622830894 -12.496295499925612, -52.919810658052214 -12.834539863605922, -52.68542094296866 -13.10986736009567 M-52.68542094296866 -13.10986736009567 C-52.428235998261385 -13.375431930782582, -52.17105105355411 -13.640996501469496, -51.815809736767996 -14.007812326905677 M-52.68542094296866 -13.10986736009567 C-52.50035410915407 -13.300964060278869, -52.31528727533948 -13.492060760462065, -51.815809736767996 -14.007812326905677 M-51.815809736767996 -14.007812326905677 C-51.51061079510519 -14.284985930602346, -51.20541185344238 -14.562159534299015, -50.89045370850189 -14.848196188198107 M-51.815809736767996 -14.007812326905677 C-51.57956313920407 -14.222365236070797, -51.343316541640135 -14.436918145235918, -50.89045370850189 -14.848196188198107 M-50.89045370850189 -14.848196188198107 C-50.659005157935354 -15.032770248170321, -50.42755660736882 -15.217344308142536, -49.91315534457872 -15.627565626425149 M-50.89045370850189 -14.848196188198107 C-50.584929764626956 -15.091843403104765, -50.27940582075203 -15.335490618011422, -49.91315534457872 -15.627565626425149 M-49.91315534457872 -15.627565626425149 C-49.597548408742945 -15.847719362460134, -49.281941472907164 -16.06787309849512, -48.887930573605715 -16.342718045390885 M-49.91315534457872 -15.627565626425149 C-49.536133695858325 -15.890559607568374, -49.15911204713793 -16.1535535887116, -48.887930573605715 -16.342718045390885 M-48.887930573605715 -16.342718045390885 C-48.61031609688441 -16.511009572623095, -48.3327016201631 -16.6793010998553, -47.81899226407679 -16.99071473040609 M-48.887930573605715 -16.342718045390885 C-48.51707457746877 -16.567533129640843, -48.14621858133182 -16.7923482138908, -47.81899226407679 -16.99071473040609 M-47.81899226407679 -16.99071473040609 C-47.53058056097305 -17.1411789311788, -47.242168857869316 -17.291643131951506, -46.71073291279239 -17.56889292409717 M-47.81899226407679 -16.99071473040609 C-47.426736996467646 -17.19535405226629, -47.03448172885851 -17.39999337412649, -46.71073291279239 -17.56889292409717 M-46.71073291279239 -17.56889292409717 C-46.26142920503298 -17.767786347401316, -45.812125497273584 -17.96667977070546, -45.567706595147804 -18.07487676824742 M-46.71073291279239 -17.56889292409717 C-46.42071533588113 -17.697275102330032, -46.130697758969866 -17.825657280562897, -45.567706595147804 -18.07487676824742 M-45.567706595147804 -18.07487676824742 C-45.210659368686265 -18.206273448093647, -44.853612142224726 -18.337670127939877, -44.39461025146062 -18.506587066708033 M-45.567706595147804 -18.07487676824742 C-45.15498847505884 -18.226760851564638, -44.74227035496988 -18.378644934881855, -44.39461025146062 -18.506587066708033 M-44.39461025146062 -18.506587066708033 C-43.949051283812324 -18.6388266295193, -43.50349231616403 -18.771066192330565, -43.19626438623541 -18.862249829261067 M-44.39461025146062 -18.506587066708033 C-44.04580472387652 -18.610110716377417, -43.696999196292424 -18.7136343660468, -43.19626438623541 -18.862249829261067 M-43.19626438623541 -18.862249829261067 C-42.72728995852974 -18.969290182040744, -42.258315530824056 -19.07633053482042, -41.977593259676766 -19.140403561325773 M-43.19626438623541 -18.862249829261067 C-42.87267978843575 -18.936105902122, -42.54909519063608 -19.00996197498294, -41.977593259676766 -19.140403561325773 M-41.977593259676766 -19.140403561325773 C-41.56736728699126 -19.206725715239635, -41.15714131430574 -19.273047869153498, -40.74360465284788 -19.3399052695533 M-41.977593259676766 -19.140403561325773 C-41.51710570243954 -19.214851618445547, -41.05661814520231 -19.28929967556532, -40.74360465284788 -19.3399052695533 M-40.74360465284788 -19.3399052695533 C-40.3228202320975 -19.380497836555783, -39.902035811347126 -19.421090403558264, -39.4993692896239 -19.45993515863156 M-40.74360465284788 -19.3399052695533 C-40.353749760025785 -19.377514102194738, -39.9638948672037 -19.41512293483618, -39.4993692896239 -19.45993515863156 M-39.4993692896239 -19.45993515863156 C-39.23019016334085 -19.46856720928607, -38.96101103705781 -19.477199259940583, -38.25000000000001 -19.5 M-39.4993692896239 -19.45993515863156 C-39.20177772948276 -19.469478340738455, -38.904186169341614 -19.479021522845347, -38.25000000000001 -19.5 M-38.25000000000001 -19.5 C-38.25000000000001 -19.5, -38.25 -19.5, -38.25 -19.5 M-38.25000000000001 -19.5 C-38.25000000000001 -19.5, -38.25 -19.5, -38.25 -19.5" stroke="#9370DB" stroke-width="1.3" fill="none" stroke-dasharray="0 0" style="fill:#7f8c8d !important"></path></g><g class="label" style="color:#fff !important" transform="translate(-45.375, -12)"><rect></rect><foreignObject width="90.75" height="24"><div style="color: rgb(255, 255, 255) !important; display: table-cell; white-space: nowrap; line-height: 1.5; max-width: 200px; text-align: center;" xmlns="http://www.w3.org/1999/xhtml"><span style="color:#fff !important" class="nodeLabel"><p>👤 Utilisateur</p></span></div></foreignObject></g></g><g class="node default" id="flowchart-V-1" transform="translate(348.07371520996094, 90)"><rect class="basic label-container" style="fill:#4a90d9 !important" x="-100.625" y="-39" width="201.25" height="78"></rect><g class="label" style="color:#fff !important" transform="translate(-70.625, -24)"><rect></rect><foreignObject width="141.25" height="48"><div style="color: rgb(255, 255, 255) !important; display: table-cell; white-space: nowrap; line-height: 1.5; max-width: 200px; text-align: center;" xmlns="http://www.w3.org/1999/xhtml"><span style="color:#fff !important" class="nodeLabel"><p>🖼️ Vue<br/>FXML + composants</p></span></div></foreignObject></g></g><g class="node default" id="flowchart-C-3" transform="translate(666.5815277099609, 47)"><rect class="basic label-container" style="fill:#27ae60 !important" x="-87.0078125" y="-39" width="174.015625" height="78"></rect><g class="label" style="color:#fff !important" transform="translate(-57.0078125, -24)"><rect></rect><foreignObject width="114.015625" height="48"><div style="color: rgb(255, 255, 255) !important; display: table-cell; white-space: nowrap; line-height: 1.5; max-width: 200px; text-align: center;" xmlns="http://www.w3.org/1999/xhtml"><span style="color:#fff !important" class="nodeLabel"><p>🎮 Contrôleur<br/>handler @FXML</p></span></div></foreignObject></g></g><g class="node default" id="flowchart-M-5" transform="translate(1006.6205902099609, 90)"><rect class="basic label-container" style="fill:#1a5276 !important" x="-96.71875" y="-39" width="193.4375" height="78"></rect><g class="label" style="color:#fff !important" transform="translate(-66.71875, -24)"><rect></rect><foreignObject width="133.4375" height="48"><div style="color: rgb(255, 255, 255) !important; display: table-cell; white-space: nowrap; line-height: 1.5; max-width: 200px; text-align: center;" xmlns="http://www.w3.org/1999/xhtml"><span style="color:#fff !important" class="nodeLabel"><p>📊 Modèle<br/>données + logique</p></span></div></foreignObject></g></g></g></g></g></svg>